<svg xmlns="http://www.w3.org/2000/svg" width="24" height="24" viewBox="0 0 24 24" fill="currentColor">
  <g transform="translate(3.75 2.248)"><path d="M 2.57 0.329 C 6.344 -0.11 10.156 -0.11 13.93 0.329 C 15.427 0.503 16.5 1.789 16.5 3.259 L 16.5 18.752 C 16.5 18.879 16.467 19.005 16.405 19.116 C 16.342 19.228 16.253 19.322 16.144 19.389 C 16.035 19.456 15.911 19.494 15.784 19.5 C 15.656 19.506 15.529 19.479 15.415 19.422 L 8.25 15.841 L 1.085 19.424 C 0.971 19.481 0.843 19.508 0.716 19.502 C 0.588 19.496 0.464 19.458 0.355 19.39 C 0.246 19.323 0.157 19.229 0.095 19.117 C 0.032 19.005 0 18.879 0 18.752 L 0 3.259 C 0 1.789 1.073 0.503 2.57 0.329 Z" fill="currentColor" fill-rule="evenodd"></path></g>
</svg>