<svg xmlns="http://www.w3.org/2000/svg" width="24" height="24" viewBox="0 0 24 24" fill="currentColor">
  <g transform="translate(1.5 2.25)"><path d="M 3.413 0.408 C 5.488 0.138 7.603 0 9.75 0 C 11.897 0 14.012 0.139 16.087 0.408 C 18.009 0.658 19.378 2.269 19.492 4.135 C 19.158 4.024 18.811 3.953 18.46 3.924 C 15.658 3.691 12.842 3.691 10.04 3.924 C 7.682 4.12 6 6.114 6 8.358 L 6 12.644 C 5.999 13.468 6.226 14.276 6.655 14.979 C 7.084 15.682 7.7 16.253 8.433 16.628 L 5.78 19.28 C 5.675 19.385 5.542 19.456 5.396 19.485 C 5.251 19.514 5.1 19.499 4.963 19.442 C 4.826 19.386 4.709 19.29 4.627 19.166 C 4.544 19.043 4.5 18.898 4.5 18.75 L 4.5 14.72 C 4.137 14.681 3.775 14.639 3.413 14.592 C 1.405 14.33 0 12.583 0 10.612 L 0 4.388 C 0 2.418 1.405 0.669 3.413 0.408 Z" fill="currentColor" fill-rule="nonzero"></path></g>
  <g transform="translate(9 7.5)"><path d="M 6.75 0 C 5.374 0 4.011 0.057 2.664 0.169 C 1.124 0.297 0 1.603 0 3.109 L 0 7.394 C 0 8.901 1.128 10.208 2.67 10.334 C 3.913 10.436 5.17 10.491 6.438 10.499 L 9.22 13.28 C 9.325 13.385 9.458 13.456 9.604 13.485 C 9.749 13.514 9.9 13.499 10.037 13.442 C 10.174 13.386 10.291 13.29 10.373 13.166 C 10.456 13.043 10.5 12.898 10.5 12.75 L 10.5 10.36 L 10.83 10.334 C 12.372 10.209 13.5 8.901 13.5 7.394 L 13.5 3.108 C 13.5 1.603 12.375 0.297 10.836 0.168 C 9.477 0.056 8.114 0 6.75 0 Z" fill="currentColor" fill-rule="nonzero"></path></g>
</svg>