<svg xmlns="http://www.w3.org/2000/svg" width="24" height="24" viewBox="0 0 24 24" fill="currentColor">
  <g transform="translate(2.25 3)"><path d="M 18 5.511 L 17.77 6.225 L 17.771 6.225 L 18 5.511 Z M 17.52 14.087 L 17.579 14.835 L 17.581 14.834 L 17.52 14.087 Z M 16.5 14.159 L 16.456 13.41 C 16.06 13.434 15.75 13.762 15.75 14.159 L 16.5 14.159 Z M 16.5 17.25 L 15.97 17.78 C 16.184 17.995 16.507 18.059 16.787 17.943 C 17.067 17.827 17.25 17.553 17.25 17.25 L 16.5 17.25 Z M 13.5 14.25 L 14.03 13.72 C 13.89 13.579 13.699 13.5 13.5 13.5 L 13.5 14.25 Z M 9.48 14.087 L 9.541 13.339 L 9.54 13.339 L 9.48 14.087 Z M 17.524 5.416 L 17.462 6.163 L 17.462 6.163 L 17.524 5.416 Z M 9.476 5.416 L 9.414 4.669 L 9.414 4.669 L 9.476 5.416 Z M 15.24 0.402 L 15.337 -0.342 L 15.336 -0.342 L 15.24 0.402 Z M 9 0 L 9 0.75 L 9 0.75 L 9 0 Z M 2.76 0.402 L 2.663 -0.342 L 2.663 -0.342 L 2.76 0.402 Z M 2.76 13.098 L 2.857 12.354 L 2.857 12.354 L 2.76 13.098 Z M 4.5 13.292 L 5.25 13.292 C 5.25 12.905 4.955 12.581 4.569 12.545 L 4.5 13.292 Z M 4.5 18 L 3.75 18 C 3.75 18.303 3.933 18.577 4.213 18.693 C 4.493 18.809 4.816 18.745 5.03 18.53 L 4.5 18 Z M 18 5.511 L 17.771 6.225 C 18.337 6.407 18.75 6.957 18.75 7.608 L 19.5 7.608 L 20.25 7.608 C 20.25 6.321 19.431 5.183 18.229 4.797 L 18 5.511 Z M 19.5 7.608 L 18.75 7.608 L 18.75 11.894 L 19.5 11.894 L 20.25 11.894 L 20.25 7.608 L 19.5 7.608 Z M 19.5 11.894 L 18.75 11.894 C 18.75 12.659 18.184 13.28 17.459 13.34 L 17.52 14.087 L 17.581 14.834 C 19.122 14.708 20.25 13.401 20.25 11.894 L 19.5 11.894 Z M 17.52 14.087 L 17.461 13.339 C 17.123 13.366 16.789 13.391 16.456 13.41 L 16.5 14.159 L 16.544 14.908 C 16.891 14.887 17.237 14.862 17.579 14.835 L 17.52 14.087 Z M 16.5 14.159 L 15.75 14.159 L 15.75 17.25 L 16.5 17.25 L 17.25 17.25 L 17.25 14.159 L 16.5 14.159 Z M 16.5 17.25 L 17.03 16.72 L 14.03 13.72 L 13.5 14.25 L 12.97 14.78 L 15.97 17.78 L 16.5 17.25 Z M 13.5 14.25 L 13.5 13.5 C 12.166 13.5 10.847 13.446 9.541 13.339 L 9.48 14.087 L 9.419 14.835 C 10.765 14.944 12.126 15 13.5 15 L 13.5 14.25 Z M 9.48 14.087 L 9.54 13.339 C 9.354 13.324 9.173 13.271 9.008 13.183 L 8.655 13.845 L 8.302 14.507 C 8.648 14.691 9.029 14.803 9.42 14.835 L 9.48 14.087 Z M 18 5.511 L 18.23 4.797 C 18.021 4.73 17.805 4.687 17.586 4.669 L 17.524 5.416 L 17.462 6.163 C 17.567 6.172 17.67 6.193 17.77 6.225 L 18 5.511 Z M 17.524 5.416 L 17.586 4.669 C 14.867 4.443 12.133 4.443 9.414 4.669 L 9.476 5.416 L 9.538 6.163 C 12.175 5.945 14.825 5.945 17.462 6.163 L 17.524 5.416 Z M 9.476 5.416 L 9.414 4.669 C 7.875 4.796 6.75 6.103 6.75 7.608 L 7.5 7.608 L 8.25 7.608 C 8.25 6.843 8.815 6.224 9.538 6.163 L 9.476 5.416 Z M 7.5 7.608 L 6.75 7.608 L 6.75 11.894 L 7.5 11.894 L 8.25 11.894 L 8.25 7.608 L 7.5 7.608 Z M 7.5 11.894 L 6.75 11.894 C 6.75 13.008 7.362 14.005 8.302 14.507 L 8.655 13.845 L 9.008 13.183 C 8.558 12.943 8.25 12.454 8.25 11.894 L 7.5 11.894 Z M 18 5.511 L 18.75 5.511 L 18.75 3.637 L 18 3.637 L 17.25 3.637 L 17.25 5.511 L 18 5.511 Z M 18 3.637 L 18.75 3.637 C 18.75 1.666 17.345 -0.081 15.337 -0.342 L 15.24 0.402 L 15.143 1.146 C 16.351 1.303 17.25 2.366 17.25 3.637 L 18 3.637 Z M 15.24 0.402 L 15.336 -0.342 C 13.235 -0.614 11.119 -0.75 9 -0.75 L 9 0 L 9 0.75 C 11.054 0.75 13.106 0.882 15.144 1.146 L 15.24 0.402 Z M 9 0 L 9 -0.75 C 6.853 -0.75 4.737 -0.611 2.663 -0.342 L 2.76 0.402 L 2.857 1.146 C 4.867 0.885 6.917 0.75 9 0.75 L 9 0 Z M 2.76 0.402 L 2.663 -0.342 C 0.655 -0.081 -0.75 1.666 -0.75 3.637 L 0 3.637 L 0.75 3.637 C 0.75 2.366 1.649 1.303 2.857 1.146 L 2.76 0.402 Z M 0 3.637 L -0.75 3.637 L -0.75 9.863 L 0 9.863 L 0.75 9.863 L 0.75 3.637 L 0 3.637 Z M 0 9.863 L -0.75 9.863 C -0.75 11.834 0.655 13.581 2.663 13.842 L 2.76 13.098 L 2.857 12.354 C 1.649 12.197 0.75 11.134 0.75 9.863 L 0 9.863 Z M 2.76 13.098 L 2.663 13.842 C 3.249 13.918 3.838 13.984 4.431 14.039 L 4.5 13.292 L 4.569 12.545 C 3.996 12.492 3.425 12.428 2.857 12.354 L 2.76 13.098 Z M 4.5 13.292 L 3.75 13.292 L 3.75 18 L 4.5 18 L 5.25 18 L 5.25 13.292 L 4.5 13.292 Z M 4.5 18 L 5.03 18.53 L 9.185 14.375 L 8.655 13.845 L 8.125 13.315 L 3.97 17.47 L 4.5 18 Z" fill="currentColor" fill-rule="nonzero"></path></g>
</svg>