<svg xmlns="http://www.w3.org/2000/svg" width="24" height="24" viewBox="0 0 24 24" fill="currentColor">
  <g transform="translate(3.407 3)"><path d="M 6.187 0.94 L 6.927 1.064 L 6.927 1.063 L 6.187 0.94 Z M 11 0.94 L 10.261 1.063 L 10.261 1.063 L 11 0.94 Z M 11.213 2.221 L 10.474 2.344 L 10.474 2.346 L 11.213 2.221 Z M 11.858 3.091 L 11.495 3.747 L 11.502 3.751 L 11.858 3.091 Z M 12.078 3.218 L 12.466 2.576 L 12.466 2.576 L 12.078 3.218 Z M 13.153 3.342 L 13.417 4.044 L 13.417 4.044 L 13.153 3.342 Z M 14.37 2.886 L 14.634 3.588 L 14.634 3.588 L 14.37 2.886 Z M 15.74 3.376 L 16.39 3.001 L 16.39 3.001 L 15.74 3.376 Z M 17.036 5.623 L 17.686 5.248 L 17.686 5.248 L 17.036 5.623 Z M 16.776 7.054 L 16.3 6.475 L 16.299 6.475 L 16.776 7.054 Z M 15.773 7.881 L 16.25 8.46 L 16.251 8.46 L 15.773 7.881 Z M 15.343 8.873 L 16.093 8.861 L 16.093 8.857 L 15.343 8.873 Z M 15.343 9.128 L 16.093 9.144 L 16.093 9.14 L 15.343 9.128 Z M 15.773 10.119 L 16.25 9.54 L 16.25 9.54 L 15.773 10.119 Z M 16.777 10.946 L 17.255 10.368 L 17.254 10.367 L 16.777 10.946 Z M 17.037 12.376 L 17.687 12.751 L 17.687 12.751 L 17.037 12.376 Z M 15.739 14.623 L 15.09 14.248 L 15.09 14.248 L 15.739 14.623 Z M 14.37 15.114 L 14.107 15.816 L 14.107 15.816 L 14.37 15.114 Z M 13.153 14.658 L 13.417 13.956 L 13.417 13.956 L 13.153 14.658 Z M 12.077 14.782 L 11.691 14.139 L 11.688 14.141 L 12.077 14.782 Z M 11.857 14.91 L 12.22 15.566 L 12.222 15.566 L 11.857 14.91 Z M 11.213 15.779 L 10.474 15.654 L 10.474 15.656 L 11.213 15.779 Z M 11 17.06 L 10.261 16.937 L 10.261 16.937 L 11 17.06 Z M 6.186 17.06 L 5.447 17.183 L 5.447 17.184 L 6.186 17.06 Z M 5.973 15.779 L 5.234 15.902 L 5.234 15.902 L 5.973 15.779 Z M 5.329 14.909 L 5.693 14.253 L 5.692 14.252 L 5.329 14.909 Z M 5.109 14.782 L 5.497 14.14 L 5.497 14.14 L 5.109 14.782 Z M 4.033 14.658 L 3.771 13.955 L 3.77 13.956 L 4.033 14.658 Z M 2.816 15.114 L 2.553 14.412 L 2.553 14.412 L 2.816 15.114 Z M 1.447 14.624 L 0.798 14.999 L 0.798 15 L 1.447 14.624 Z M 0.15 12.377 L -0.499 12.752 L -0.499 12.752 L 0.15 12.377 Z M 0.41 10.946 L 0.887 11.525 L 0.887 11.525 L 0.41 10.946 Z M 1.414 10.119 L 0.938 9.54 L 0.938 9.54 L 1.414 10.119 Z M 1.844 9.128 L 1.095 9.142 L 1.095 9.142 L 1.844 9.128 Z M 1.844 8.873 L 1.095 8.859 L 1.095 8.859 L 1.844 8.873 Z M 1.414 7.881 L 1.892 7.303 L 1.891 7.302 L 1.414 7.881 Z M 0.41 7.054 L 0.887 6.475 L 0.887 6.475 L 0.41 7.054 Z M 0.15 5.624 L -0.499 5.249 L -0.499 5.25 L 0.15 5.624 Z M 1.447 3.377 L 2.097 3.752 L 2.097 3.752 L 1.447 3.377 Z M 2.817 2.886 L 2.554 3.588 L 2.554 3.588 L 2.817 2.886 Z M 4.033 3.342 L 3.77 4.044 L 3.771 4.045 L 4.033 3.342 Z M 5.109 3.218 L 5.497 3.86 L 5.501 3.858 L 5.109 3.218 Z M 5.329 3.09 L 4.967 2.433 L 4.959 2.438 L 5.329 3.09 Z M 5.973 2.221 L 5.234 2.097 L 5.234 2.098 L 5.973 2.221 Z M 6.187 0.94 L 6.927 1.063 C 6.957 0.883 7.114 0.75 7.297 0.75 L 7.297 0 L 7.297 -0.75 C 6.381 -0.75 5.598 -0.087 5.448 0.817 L 6.187 0.94 Z M 7.297 0 L 7.297 0.75 L 9.89 0.75 L 9.89 0 L 9.89 -0.75 L 7.297 -0.75 L 7.297 0 Z M 9.89 0 L 9.89 0.75 C 10.074 0.75 10.231 0.883 10.261 1.063 L 11 0.94 L 11.74 0.817 C 11.59 -0.087 10.807 -0.75 9.89 -0.75 L 9.89 0 Z M 11 0.94 L 10.261 1.063 L 10.474 2.344 L 11.213 2.221 L 11.953 2.098 L 11.74 0.817 L 11 0.94 Z M 11.213 2.221 L 10.474 2.346 C 10.581 2.979 10.996 3.47 11.495 3.747 L 11.858 3.091 L 12.222 2.435 C 12.057 2.344 11.972 2.211 11.953 2.096 L 11.213 2.221 Z M 11.858 3.091 L 11.502 3.751 C 11.56 3.782 11.622 3.818 11.691 3.86 L 12.078 3.218 L 12.466 2.576 C 12.389 2.53 12.304 2.48 12.215 2.431 L 11.858 3.091 Z M 12.078 3.218 L 11.691 3.86 C 12.18 4.155 12.814 4.27 13.417 4.044 L 13.153 3.342 L 12.89 2.64 C 12.783 2.68 12.627 2.673 12.466 2.576 L 12.078 3.218 Z M 13.153 3.342 L 13.417 4.044 L 14.634 3.588 L 14.37 2.886 L 14.107 2.184 L 12.89 2.64 L 13.153 3.342 Z M 14.37 2.886 L 14.634 3.588 C 14.718 3.557 14.809 3.556 14.893 3.586 L 15.145 2.88 L 15.398 2.174 C 14.98 2.024 14.522 2.028 14.106 2.184 L 14.37 2.886 Z M 15.145 2.88 L 14.893 3.586 C 14.976 3.616 15.047 3.674 15.091 3.751 L 15.74 3.376 L 16.39 3.001 C 16.168 2.616 15.816 2.323 15.398 2.174 L 15.145 2.88 Z M 15.74 3.376 L 15.091 3.751 L 16.387 5.998 L 17.036 5.623 L 17.686 5.248 L 16.39 3.001 L 15.74 3.376 Z M 17.036 5.623 L 16.387 5.998 C 16.431 6.075 16.447 6.165 16.431 6.252 L 17.169 6.386 L 17.907 6.52 C 17.986 6.084 17.908 5.633 17.686 5.248 L 17.036 5.623 Z M 17.169 6.386 L 16.431 6.252 C 16.415 6.339 16.369 6.418 16.3 6.475 L 16.776 7.054 L 17.253 7.633 C 17.596 7.351 17.827 6.957 17.907 6.52 L 17.169 6.386 Z M 16.776 7.054 L 16.299 6.475 L 15.296 7.302 L 15.773 7.881 L 16.251 8.46 L 17.254 7.633 L 16.776 7.054 Z M 15.773 7.881 L 15.297 7.302 C 14.8 7.71 14.582 8.316 14.594 8.889 L 15.343 8.873 L 16.093 8.857 C 16.089 8.672 16.161 8.534 16.25 8.46 L 15.773 7.881 Z M 15.343 8.873 L 14.594 8.885 C 14.595 8.962 14.595 9.039 14.594 9.116 L 15.343 9.128 L 16.093 9.14 C 16.095 9.047 16.095 8.954 16.093 8.861 L 15.343 8.873 Z M 15.343 9.128 L 14.594 9.112 C 14.582 9.684 14.8 10.29 15.297 10.698 L 15.773 10.119 L 16.25 9.54 C 16.161 9.466 16.089 9.328 16.093 9.144 L 15.343 9.128 Z M 15.773 10.119 L 15.297 10.698 L 16.301 11.525 L 16.777 10.946 L 17.254 10.367 L 16.25 9.54 L 15.773 10.119 Z M 16.777 10.946 L 16.3 11.524 C 16.443 11.642 16.478 11.845 16.388 12.001 L 17.037 12.376 L 17.687 12.751 C 18.145 11.957 17.96 10.95 17.255 10.368 L 16.777 10.946 Z M 17.037 12.376 L 16.388 12.001 L 15.09 14.248 L 15.739 14.623 L 16.389 14.998 L 17.687 12.751 L 17.037 12.376 Z M 15.739 14.623 L 15.09 14.248 C 15.046 14.325 14.975 14.384 14.892 14.413 L 15.145 15.119 L 15.398 15.825 C 15.816 15.676 16.167 15.382 16.389 14.998 L 15.739 14.623 Z M 15.145 15.119 L 14.892 14.413 C 14.808 14.443 14.717 14.443 14.634 14.412 L 14.37 15.114 L 14.107 15.816 C 14.523 15.972 14.98 15.975 15.398 15.825 L 15.145 15.119 Z M 14.37 15.114 L 14.634 14.412 L 13.417 13.956 L 13.153 14.658 L 12.89 15.36 L 14.107 15.816 L 14.37 15.114 Z M 13.153 14.658 L 13.417 13.956 C 12.814 13.73 12.18 13.845 11.691 14.139 L 12.077 14.782 L 12.464 15.425 C 12.627 15.327 12.783 15.32 12.89 15.36 L 13.153 14.658 Z M 12.077 14.782 L 11.688 14.141 C 11.624 14.18 11.559 14.218 11.493 14.254 L 11.857 14.91 L 12.222 15.566 C 12.305 15.52 12.386 15.472 12.467 15.423 L 12.077 14.782 Z M 11.857 14.91 L 11.495 14.254 C 10.995 14.53 10.58 15.022 10.474 15.654 L 11.213 15.779 L 11.953 15.904 C 11.972 15.788 12.058 15.656 12.22 15.566 L 11.857 14.91 Z M 11.213 15.779 L 10.474 15.656 L 10.261 16.937 L 11 17.06 L 11.74 17.183 L 11.953 15.902 L 11.213 15.779 Z M 11 17.06 L 10.261 16.937 C 10.231 17.117 10.075 17.25 9.89 17.25 L 9.89 18 L 9.89 18.75 C 10.806 18.75 11.59 18.089 11.74 17.183 L 11 17.06 Z M 9.89 18 L 9.89 17.25 L 7.296 17.25 L 7.296 18 L 7.296 18.75 L 9.89 18.75 L 9.89 18 Z M 7.296 18 L 7.296 17.25 C 7.114 17.25 6.957 17.118 6.926 16.936 L 6.186 17.06 L 5.447 17.184 C 5.598 18.086 6.379 18.75 7.296 18.75 L 7.296 18 Z M 6.186 17.06 L 6.926 16.937 L 6.713 15.656 L 5.973 15.779 L 5.234 15.902 L 5.447 17.183 L 6.186 17.06 Z M 5.973 15.779 L 6.713 15.656 C 6.608 15.021 6.192 14.53 5.693 14.253 L 5.329 14.909 L 4.966 15.565 C 5.131 15.656 5.215 15.789 5.234 15.902 L 5.973 15.779 Z M 5.329 14.909 L 5.692 14.252 C 5.626 14.216 5.561 14.179 5.497 14.14 L 5.109 14.782 L 4.722 15.424 C 4.803 15.473 4.885 15.52 4.967 15.566 L 5.329 14.909 Z M 5.109 14.782 L 5.497 14.14 C 5.008 13.845 4.374 13.73 3.771 13.955 L 4.033 14.658 L 4.296 15.361 C 4.405 15.32 4.561 15.327 4.722 15.424 L 5.109 14.782 Z M 4.033 14.658 L 3.77 13.956 L 2.553 14.412 L 2.816 15.114 L 3.08 15.816 L 4.297 15.36 L 4.033 14.658 Z M 2.816 15.114 L 2.553 14.412 C 2.47 14.443 2.378 14.444 2.295 14.414 L 2.042 15.12 L 1.789 15.826 C 2.207 15.976 2.664 15.972 3.08 15.816 L 2.816 15.114 Z M 2.042 15.12 L 2.295 14.414 C 2.211 14.384 2.141 14.325 2.097 14.248 L 1.447 14.624 L 0.798 15 C 1.02 15.384 1.372 15.676 1.789 15.826 L 2.042 15.12 Z M 1.447 14.624 L 2.097 14.249 L 0.8 12.002 L 0.15 12.377 L -0.499 12.752 L 0.798 14.999 L 1.447 14.624 Z M 0.15 12.377 L 0.8 12.002 C 0.756 11.925 0.74 11.835 0.756 11.748 L 0.018 11.614 L -0.72 11.48 C -0.799 11.916 -0.721 12.367 -0.499 12.752 L 0.15 12.377 Z M 0.018 11.614 L 0.756 11.748 C 0.772 11.661 0.818 11.582 0.887 11.525 L 0.41 10.946 L -0.066 10.367 C -0.409 10.649 -0.64 11.043 -0.72 11.48 L 0.018 11.614 Z M 0.41 10.946 L 0.887 11.525 L 1.891 10.698 L 1.414 10.119 L 0.938 9.54 L -0.066 10.367 L 0.41 10.946 Z M 1.414 10.119 L 1.891 10.698 C 2.387 10.29 2.605 9.683 2.594 9.114 L 1.844 9.128 L 1.095 9.142 C 1.098 9.329 1.026 9.468 0.938 9.54 L 1.414 10.119 Z M 1.844 9.128 L 2.594 9.114 C 2.593 9.038 2.593 8.963 2.594 8.887 L 1.844 8.873 L 1.095 8.859 C 1.093 8.953 1.093 9.048 1.095 9.142 L 1.844 9.128 Z M 1.844 8.873 L 2.594 8.887 C 2.605 8.315 2.387 7.711 1.892 7.303 L 1.414 7.881 L 0.937 8.459 C 1.026 8.533 1.098 8.671 1.095 8.859 L 1.844 8.873 Z M 1.414 7.881 L 1.891 7.302 L 0.887 6.475 L 0.41 7.054 L -0.066 7.633 L 0.938 8.46 L 1.414 7.881 Z M 0.41 7.054 L 0.887 6.475 C 0.819 6.419 0.772 6.34 0.756 6.252 L 0.019 6.387 L -0.719 6.521 C -0.64 6.957 -0.409 7.351 -0.066 7.633 L 0.41 7.054 Z M 0.019 6.387 L 0.756 6.252 C 0.741 6.165 0.756 6.075 0.8 5.998 L 0.15 5.624 L -0.499 5.25 C -0.721 5.634 -0.799 6.084 -0.719 6.521 L 0.019 6.387 Z M 0.15 5.624 L 0.8 5.999 L 2.097 3.752 L 1.447 3.377 L 0.798 3.002 L -0.499 5.249 L 0.15 5.624 Z M 1.447 3.377 L 2.097 3.752 C 2.142 3.675 2.212 3.616 2.295 3.586 L 2.042 2.88 L 1.789 2.174 C 1.371 2.324 1.02 2.617 0.798 3.002 L 1.447 3.377 Z M 2.042 2.88 L 2.295 3.586 C 2.379 3.556 2.471 3.557 2.554 3.588 L 2.817 2.886 L 3.081 2.184 C 2.665 2.028 2.208 2.024 1.789 2.174 L 2.042 2.88 Z M 2.817 2.886 L 2.554 3.588 L 3.77 4.044 L 4.033 3.342 L 4.297 2.64 L 3.081 2.184 L 2.817 2.886 Z M 4.033 3.342 L 3.771 4.045 C 4.374 4.27 5.008 4.155 5.497 3.86 L 5.109 3.218 L 4.722 2.576 C 4.561 2.673 4.405 2.68 4.296 2.639 L 4.033 3.342 Z M 5.109 3.218 L 5.501 3.858 C 5.56 3.821 5.624 3.785 5.7 3.742 L 5.329 3.09 L 4.959 2.438 C 4.887 2.479 4.802 2.527 4.718 2.578 L 5.109 3.218 Z M 5.329 3.09 L 5.692 3.747 C 6.192 3.471 6.608 2.978 6.713 2.344 L 5.973 2.221 L 5.234 2.098 C 5.215 2.212 5.131 2.343 4.967 2.433 L 5.329 3.09 Z M 5.973 2.221 L 6.713 2.345 L 6.927 1.064 L 6.187 0.94 L 5.448 0.816 L 5.234 2.097 L 5.973 2.221 Z" fill="currentColor" fill-rule="nonzero"></path></g>
  <g transform="translate(9 9)"><path d="M 6 3 L 6.75 3 L 6 3 Z M 3 0 L 3 -0.75 L 3 0 Z M 6 3 L 5.25 3 C 5.25 3.597 5.013 4.169 4.591 4.591 L 5.121 5.121 L 5.652 5.652 C 6.355 4.948 6.75 3.995 6.75 3 L 6 3 Z M 5.121 5.121 L 4.591 4.591 C 4.169 5.013 3.597 5.25 3 5.25 L 3 6 L 3 6.75 C 3.995 6.75 4.948 6.355 5.652 5.652 L 5.121 5.121 Z M 3 6 L 3 5.25 C 2.403 5.25 1.831 5.013 1.409 4.591 L 0.879 5.121 L 0.348 5.652 C 1.052 6.355 2.005 6.75 3 6.75 L 3 6 Z M 0.879 5.121 L 1.409 4.591 C 0.987 4.169 0.75 3.597 0.75 3 L 0 3 L -0.75 3 C -0.75 3.995 -0.355 4.948 0.348 5.652 L 0.879 5.121 Z M 0 3 L 0.75 3 C 0.75 2.403 0.987 1.831 1.409 1.409 L 0.879 0.879 L 0.348 0.348 C -0.355 1.052 -0.75 2.005 -0.75 3 L 0 3 Z M 0.879 0.879 L 1.409 1.409 C 1.831 0.987 2.403 0.75 3 0.75 L 3 0 L 3 -0.75 C 2.005 -0.75 1.052 -0.355 0.348 0.348 L 0.879 0.879 Z M 3 0 L 3 0.75 C 3.597 0.75 4.169 0.987 4.591 1.409 L 5.121 0.879 L 5.652 0.348 C 4.948 -0.355 3.995 -0.75 3 -0.75 L 3 0 Z M 5.121 0.879 L 4.591 1.409 C 5.013 1.831 5.25 2.403 5.25 3 L 6 3 L 6.75 3 C 6.75 2.005 6.355 1.052 5.652 0.348 L 5.121 0.879 Z" fill="currentColor" fill-rule="nonzero"></path></g>
</svg>