<svg width="24" height="24" viewBox="0 0 24 24" fill="none" xmlns="http://www.w3.org/2000/svg">
<path d="M21.3463 11.6732C21.3463 14.2386 20.3272 16.699 18.5131 18.5131V19.0548C20.3272 17.2407 21.3463 14.7803 21.3463 12.2149V11.6732Z" fill="#FC4C0F" stroke="#E6997B"/>
<path d="M18.5131 18.5131C16.699 20.3272 14.2386 21.3463 11.6732 21.3463V21.888C14.2386 21.888 16.699 20.8689 18.5131 19.0548V18.5131Z" fill="#FC4C0F" stroke="#E6997B"/>
<path d="M11.6732 21.3463C9.10769 21.3463 6.64729 20.3272 4.83322 18.5131V19.0548C6.64729 20.8689 9.10769 21.888 11.6732 21.888V21.3463Z" fill="#FC4C0F" stroke="#E6997B"/>
<path d="M4.8332 18.5131C3.01913 16.699 2 14.2386 2 11.6732V12.2149C2 14.7803 3.01913 17.2407 4.8332 19.0548V18.5131Z" fill="#FC4C0F" stroke="#E6997B"/>
<path d="M2 11.6731C2 9.10766 3.01913 6.64725 4.8332 4.83319V5.37489C3.01913 7.18895 2 9.64936 2 12.2148V11.6731Z" fill="#FC4C0F" stroke="#E6997B"/>
<path d="M4.83322 4.8332C6.64729 3.01913 9.10769 2 11.6732 2V2.5417C9.10769 2.5417 6.64729 3.56083 4.83322 5.3749V4.8332Z" fill="#FC4C0F" stroke="#E6997B"/>
<path d="M11.6732 2C14.2386 2 16.699 3.01913 18.5131 4.8332V5.3749C16.699 3.56083 14.2386 2.5417 11.6732 2.5417V2Z" fill="#FC4C0F" stroke="#E6997B"/>
<path d="M18.5131 4.83319C20.3272 6.64725 21.3463 9.10766 21.3463 11.6731V12.2148C21.3463 9.64936 20.3272 7.18895 18.5131 5.37489V4.83319Z" fill="#FC4C0F" stroke="#E6997B"/>
<path d="M21.3463 11.6732V12.2149" stroke="#E6997B"/>
<path d="M21.3463 11.6731C21.3463 14.2386 20.3272 16.699 18.5131 18.5131C16.699 20.3272 14.2386 21.3463 11.6732 21.3463C9.10767 21.3463 6.64727 20.3272 4.8332 18.5131C3.01913 16.699 2 14.2386 2 11.6731C2 9.10767 3.01913 6.64727 4.8332 4.8332C6.64727 3.01913 9.10767 2 11.6732 2C14.2386 2 16.699 3.01913 18.5131 4.8332C20.3272 6.64727 21.3463 9.10767 21.3463 11.6731Z" fill="#FDD4BE" stroke="#FCAA88"/>
<mask id="mask0_210_2772" style="mask-type:luminance" maskUnits="userSpaceOnUse" x="4" y="5" width="16" height="14">
<path d="M19.8606 5.48236H4.70847V18.6516H19.8606V5.48236Z" fill="white"/>
</mask>
<g mask="url(#mask0_210_2772)">
<path d="M18.0669 8.91584C18.0669 9.17443 17.8572 9.38406 17.5987 9.38406C17.3401 9.38406 17.1304 9.17443 17.1304 8.91584C17.1304 8.65726 17.3401 8.44763 17.5987 8.44763C17.8572 8.44763 18.0669 8.65726 18.0669 8.91584Z" fill="#FAFAF8"/>
<path d="M4.94299 14.1251C4.9874 14.1142 5.36504 14.1477 5.43874 14.1545V14.6962C5.36504 14.6894 4.9874 14.6559 4.94299 14.6668V14.1251Z" fill="#FCAA88"/>
<path d="M5.43872 14.1545C6.69119 14.2815 7.9117 14.6267 9.04575 15.1732V15.7149C7.9117 15.1684 6.69119 14.8232 5.43872 14.6962V14.1545Z" fill="#FCAA88"/>
<path d="M9.04575 15.1732C9.19602 15.2451 9.33935 15.3298 9.48406 15.412V15.9537C9.33935 15.8715 9.19602 15.7868 9.04575 15.7149V15.1732Z" fill="#FCAA88"/>
<path d="M9.48407 15.412C10.5575 16.0219 11.4277 16.9326 11.8442 18.1099V18.6516C11.4277 17.4743 10.5575 16.5636 9.48407 15.9537V15.412Z" fill="#FCAA88"/>
<path d="M11.8442 18.1099C11.7907 18.0582 11.771 18.0398 11.7278 17.9784V18.5201C11.771 18.5815 11.7907 18.5999 11.8442 18.6516V18.1099Z" fill="#FCAA88"/>
<path d="M11.7278 17.9784C11.4179 17.6603 11.0562 17.3417 10.688 17.1078V17.6495C11.0562 17.8834 11.4179 18.202 11.7278 18.5201V17.9784Z" fill="#FCAA88"/>
<path d="M10.688 17.1078C9.20404 16.1653 7.36967 15.8395 5.63373 15.882V16.4237C7.36967 16.3812 9.20404 16.707 10.688 17.6495V17.1078Z" fill="#FCAA88"/>
<path d="M5.63373 15.882C5.44378 15.8867 5.27995 15.8395 5.19919 15.644V16.1857C5.27995 16.3812 5.44378 16.4284 5.63373 16.4237V15.882Z" fill="#FCAA88"/>
<path d="M5.19917 15.6441C5.03623 15.2497 4.85683 14.8489 4.71854 14.4448V14.9865C4.85683 15.3906 5.03623 15.7914 5.19917 16.1858V15.6441Z" fill="#FCAA88"/>
<path d="M4.7185 14.4447C4.71049 14.4214 4.70844 14.3867 4.70844 14.353V14.8947C4.70844 14.9284 4.71049 14.9631 4.7185 14.9864V14.4447Z" fill="#FCAA88"/>
<path d="M4.70844 14.353C4.70844 14.3284 4.70953 14.3044 4.71019 14.2859V14.8276C4.70953 14.8461 4.70844 14.8701 4.70844 14.8947V14.353Z" fill="#FCAA88"/>
<path d="M4.71021 14.2859C4.78504 14.1753 4.80818 14.1547 4.94296 14.1249V14.6666C4.80818 14.6964 4.78504 14.717 4.71021 14.8276V14.2859Z" fill="#FCAA88"/>
<path d="M7.10736 8.12164C7.24296 8.13981 7.28525 8.22688 7.3575 8.33324V8.87494C7.28525 8.76858 7.24296 8.68151 7.10736 8.66334V8.12164Z" fill="#FCAA88"/>
<path d="M7.35748 8.33325C8.58142 10.1347 11.207 10.4029 12.1442 12.4852V13.0269C11.207 10.9446 8.58142 10.6764 7.35748 8.87495V8.33325Z" fill="#FCAA88"/>
<path d="M12.1442 12.4852C12.3147 12.8642 12.3845 13.2457 12.3845 13.6264V14.1681C12.3845 13.7874 12.3147 13.4059 12.1442 13.0269V12.4852Z" fill="#FCAA88"/>
<path d="M12.3845 13.6265C12.3845 14.2279 12.2103 14.8273 11.984 15.4121V15.9537C12.2103 15.369 12.3845 14.7696 12.3845 14.1682V13.6265Z" fill="#FCAA88"/>
<path d="M11.984 15.412C11.9556 15.498 11.9119 15.6027 11.8782 15.6886V16.2303C11.9119 16.1444 11.9556 16.0397 11.984 15.9537V15.412Z" fill="#FCAA88"/>
<path d="M11.8782 15.6886C11.6248 14.0713 10.8805 12.9942 9.41153 12.2502V12.7919C10.8805 13.5359 11.6248 14.613 11.8782 16.2303V15.6886Z" fill="#FCAA88"/>
<path d="M9.41149 12.2502C8.95989 12.0216 8.51713 11.8178 8.11768 11.5021V12.0438C8.51713 12.3595 8.95989 12.5633 9.41149 12.7919V12.2502Z" fill="#FCAA88"/>
<path d="M8.11776 11.5019C7.30889 10.8625 6.92453 9.86547 6.92453 8.85498V9.39667C6.92453 10.4072 7.30889 11.4042 8.11776 12.0436V11.5019Z" fill="#FCAA88"/>
<path d="M6.92453 8.85511C6.92453 8.80364 6.92553 8.75212 6.92752 8.70062V9.24232C6.92553 9.29382 6.92453 9.34533 6.92453 9.39681V8.85511Z" fill="#FCAA88"/>
<path d="M6.92746 8.70052C6.9282 8.68137 6.92846 8.66204 6.92846 8.64258V9.18427C6.92846 9.20374 6.9282 9.22307 6.92746 9.24221V8.70052Z" fill="#FCAA88"/>
<path d="M6.92849 8.6426C6.92849 8.58602 6.9263 8.52837 6.9274 8.47113V9.01283C6.9263 9.07007 6.92849 9.12771 6.92849 9.1843V8.6426Z" fill="#FCAA88"/>
<path d="M6.92737 8.47107C6.9289 8.39123 6.93682 8.3122 6.966 8.23798V8.77967C6.93682 8.85389 6.9289 8.93293 6.92737 9.01276V8.47107Z" fill="#FCAA88"/>
<path d="M6.966 8.23802C6.99461 8.16552 7.03859 8.14959 7.10732 8.12164V8.66334C7.03859 8.69129 6.99461 8.70722 6.966 8.77972V8.23802Z" fill="#FCAA88"/>
<path d="M7.90744 5.48236C7.9658 5.48283 8.05169 5.49559 8.09335 5.54131V6.083C8.05169 6.03729 7.9658 6.02453 7.90744 6.02406V5.48236Z" fill="#FCAA88"/>
<path d="M8.09341 5.54138C8.20306 5.66487 8.28182 5.81403 8.37982 5.94796V6.48965C8.28182 6.35573 8.20306 6.20657 8.09341 6.08308V5.54138Z" fill="#FCAA88"/>
<path d="M8.37976 5.94781C8.98451 6.7741 9.84629 7.21637 10.7489 7.64969V8.19138C9.84629 7.75806 8.98451 7.31579 8.37976 6.48951V5.94781Z" fill="#FCAA88"/>
<path d="M10.749 7.64978C12.4108 8.44758 14.5093 9.30613 14.5093 11.4456V11.9873C14.5093 9.84785 12.4108 8.98928 10.749 8.19148V7.64978Z" fill="#FCAA88"/>
<path d="M14.5093 11.4456C14.5093 11.5019 14.5078 11.5591 14.5049 11.6172V12.1589C14.5078 12.1008 14.5093 12.0436 14.5093 11.9873V11.4456Z" fill="#FCAA88"/>
<path d="M14.5049 11.6172C14.6148 11.3897 14.7413 11.0441 14.8094 10.8018V11.3435C14.7413 11.5858 14.6148 11.9313 14.5049 12.1589V11.6172Z" fill="#FCAA88"/>
<path d="M14.8094 10.8018C15.1551 9.57249 15.722 8.27259 17.1287 8.00714V8.54884C15.722 8.81428 15.1551 10.1142 14.8094 11.3434V10.8018Z" fill="#FCAA88"/>
<path d="M17.1287 8.0072C17.6831 7.90268 18.1652 8.0473 18.631 8.3707V8.91239C18.1652 8.58899 17.6831 8.44437 17.1287 8.5489V8.0072Z" fill="#FCAA88"/>
<path d="M18.631 8.37066C19.1182 8.33478 19.436 8.35994 19.8606 8.60191V9.14361C19.436 8.90164 19.1182 8.87647 18.631 8.91236V8.37066Z" fill="#FCAA88"/>
<path d="M19.8607 8.60193C19.5955 8.68434 19.3488 8.81865 19.1359 8.99717V9.53887C19.3488 9.36034 19.5955 9.22603 19.8607 9.14363V8.60193Z" fill="#FCAA88"/>
<path d="M19.1358 8.99713C18.3827 9.6382 18.361 10.5988 18.0907 11.4857V12.0274C18.361 11.1405 18.3827 10.1799 19.1358 9.53883V8.99713Z" fill="#FCAA88"/>
<path d="M18.0908 11.4857C17.9388 11.9827 17.7165 12.4557 17.431 12.8899V13.4316C17.7165 12.9974 17.9388 12.5244 18.0908 12.0274V11.4857Z" fill="#FCAA88"/>
<path d="M17.431 12.8898C17.0464 13.4579 16.5394 13.9328 15.9475 14.2796V14.8213C16.5394 14.4744 17.0464 13.9996 17.431 13.4315V12.8898Z" fill="#FCAA88"/>
<path d="M15.9475 14.2796C15.648 14.4582 15.3177 14.6213 15.0119 14.7972V15.3389C15.3177 15.163 15.648 14.9999 15.9475 14.8213V14.2796Z" fill="#FCAA88"/>
<path d="M15.0119 14.7972C13.9818 15.3903 13.024 16.1166 12.3791 17.1332V17.6749C13.024 16.6583 13.9818 15.932 15.0119 15.3389V14.7972Z" fill="#FCAA88"/>
<path d="M12.3791 17.1332C12.2314 17.3659 12.1301 17.5721 12.0148 17.8202V18.3619C12.1301 18.1138 12.2314 17.9076 12.3791 17.6749V17.1332Z" fill="#FCAA88"/>
<path d="M12.0148 17.8202C11.9749 17.6407 11.9568 17.4459 11.9568 17.2462V17.7879C11.9568 17.9876 11.9749 18.1824 12.0148 18.3619V17.8202Z" fill="#FCAA88"/>
<path d="M11.9568 17.2461C11.9568 16.8119 12.0428 16.3547 12.1795 15.9829V16.5246C12.0428 16.8964 11.9568 17.3536 11.9568 17.7878V17.2461Z" fill="#FCAA88"/>
<path d="M12.1795 15.983C12.2786 15.7137 12.4009 15.4482 12.5022 15.1796V15.7213C12.4009 15.9899 12.2786 16.2554 12.1795 16.5247V15.983Z" fill="#FCAA88"/>
<path d="M12.5023 15.1797C12.7042 14.6446 12.8367 14.0748 12.8367 13.5051V14.0468C12.8367 14.6165 12.7042 15.1863 12.5023 15.7214V15.1797Z" fill="#FCAA88"/>
<path d="M12.8367 13.5051C12.8367 13.2002 12.7987 12.8953 12.713 12.5959V13.1376C12.7987 13.437 12.8367 13.7419 12.8367 14.0468V13.5051Z" fill="#FCAA88"/>
<path d="M12.7131 12.5959C12.3607 11.3339 11.2653 10.5263 10.1951 9.88519V10.4269C11.2653 11.068 12.3607 11.8756 12.7131 13.1376V12.5959Z" fill="#FCAA88"/>
<path d="M10.195 9.88523C9.10161 9.24601 8.21305 8.78623 7.7865 7.47144V8.01313C8.21305 9.32792 9.10161 9.78772 10.195 10.4269V9.88523Z" fill="#FCAA88"/>
<path d="M7.78655 7.47139C7.68295 7.14546 7.63531 6.80338 7.63531 6.4613V7.003C7.63531 7.34507 7.68295 7.68716 7.78655 8.01309V7.47139Z" fill="#FCAA88"/>
<path d="M7.63531 6.4613C7.63531 6.29559 7.6465 6.12988 7.6679 5.966V6.5077C7.6465 6.67157 7.63531 6.83728 7.63531 7.003V6.4613Z" fill="#FCAA88"/>
<path d="M7.66788 5.96602C7.69442 5.76293 7.67635 5.54962 7.90744 5.48236V6.02406C7.67635 6.0913 7.69442 6.30462 7.66788 6.50771V5.96602Z" fill="#FCAA88"/>
<path d="M5.84964 11.6573C5.98285 11.6634 6.52289 11.8091 6.68546 11.8538V12.3955C6.52289 12.3508 5.98285 12.2051 5.84964 12.199V11.6573Z" fill="#FCAA88"/>
<path d="M6.68546 11.8538C8.02278 12.2213 9.41905 12.6966 10.4262 13.6894V14.2311C9.41905 13.2383 8.02278 12.763 6.68546 12.3955V11.8538Z" fill="#FCAA88"/>
<path d="M10.4263 13.6895C11.2607 14.512 11.6385 15.7794 11.6385 16.9311V17.4728C11.6385 16.3211 11.2607 15.0537 10.4263 14.2312V13.6895Z" fill="#FCAA88"/>
<path d="M11.6385 16.931C11.6385 16.9427 11.6384 16.9545 11.6383 16.9662V17.5079C11.6384 17.4962 11.6385 17.4844 11.6385 17.4727V16.931Z" fill="#FCAA88"/>
<path d="M11.6384 16.9661L11.5583 16.8301V17.3718L11.6384 17.5078V16.9661Z" fill="#FCAA88"/>
<path d="M11.5583 16.8302C11.3846 16.553 11.2445 16.3362 11.0451 16.079V16.6207C11.2445 16.8779 11.3846 17.0947 11.5583 17.3719V16.8302Z" fill="#FCAA88"/>
<path d="M11.0452 16.079C10.3564 15.1771 9.358 14.6356 8.28531 14.3196V14.8613C9.358 15.1773 10.3564 15.7188 11.0452 16.6207V16.079Z" fill="#FCAA88"/>
<path d="M8.28536 14.3197C7.66251 14.1294 7.02029 14.0039 6.50641 13.5739V14.1155C7.02029 14.5456 7.66251 14.6711 8.28536 14.8614V14.3197Z" fill="#FCAA88"/>
<path d="M6.50634 13.5738C6.04622 13.1975 5.7673 12.6503 5.66599 12.0699V12.6116C5.7673 13.192 6.04622 13.7392 6.50634 14.1155V13.5738Z" fill="#FCAA88"/>
<path d="M5.66601 12.0699C5.65454 12.0042 5.64407 11.9421 5.64407 11.8866V12.4283C5.64407 12.4838 5.65454 12.5459 5.66601 12.6116V12.0699Z" fill="#FCAA88"/>
<path d="M5.64407 11.8866C5.64407 11.7745 5.68669 11.6897 5.84965 11.6573V12.199C5.68669 12.2314 5.64407 12.3162 5.64407 12.4283V11.8866Z" fill="#FCAA88"/>
<path d="M17.3077 8.82709C17.2957 8.85852 17.2899 8.89136 17.2899 8.924V9.46569C17.2899 9.43304 17.2957 9.40022 17.3077 9.36881V8.82709Z" fill="#FCAA88"/>
<path d="M17.2899 8.92401C17.2899 8.98768 17.3121 9.05056 17.3546 9.10066V9.64237C17.3121 9.59223 17.2899 9.52939 17.2899 9.4657V8.92401Z" fill="#FCAA88"/>
<path d="M17.3547 9.10071C17.4188 9.17647 17.5195 9.21091 17.6169 9.1914V9.73312C17.5195 9.75262 17.4188 9.71818 17.3547 9.64242V9.10071Z" fill="#FCAA88"/>
<path d="M17.6169 9.19134C17.7458 9.16527 17.8354 9.05206 17.8354 8.92462V9.46632C17.8354 9.59377 17.7458 9.70699 17.6169 9.73306V9.19134Z" fill="#FCAA88"/>
<path d="M17.8355 8.92469C17.8355 8.90947 17.8342 8.89405 17.8315 8.87854V9.42026C17.8342 9.43574 17.8355 9.45114 17.8355 9.46638V8.92469Z" fill="#FCAA88"/>
<path d="M7.90746 5.48236C7.96582 5.48283 8.05171 5.49559 8.09337 5.54131C8.20302 5.6648 8.28177 5.81396 8.37978 5.94788C8.98453 6.77416 9.84636 7.21643 10.749 7.64975C12.4546 8.46856 14.6201 9.35136 14.5049 11.6172C14.6148 11.3897 14.7413 11.0442 14.8094 10.8018C15.1551 9.57256 15.722 8.27265 17.1287 8.00721C17.6831 7.90268 18.1652 8.0473 18.6311 8.3707C19.1183 8.33482 19.4361 8.35998 19.8606 8.60195C19.5954 8.68436 19.3487 8.81867 19.1358 8.99719C18.3827 9.63826 18.361 10.5988 18.0908 11.4857C17.9388 11.9827 17.7165 12.4557 17.431 12.8899C17.0464 13.458 16.5394 13.9328 15.9475 14.2797C15.648 14.4583 15.3177 14.6213 15.0119 14.7973C13.9818 15.3904 13.024 16.1166 12.379 17.1332C12.2314 17.3659 12.1301 17.5721 12.0148 17.8202C11.8883 17.2502 11.98 16.5258 12.1795 15.983C12.2786 15.7138 12.4009 15.4483 12.5022 15.1797C12.8122 14.3581 12.9588 13.4547 12.713 12.5959C12.3607 11.3339 11.2652 10.5263 10.195 9.88511C9.10165 9.24597 8.2131 8.78619 7.78655 7.4714C7.63276 6.98758 7.6023 6.46818 7.6679 5.96602C7.69444 5.76293 7.67637 5.54962 7.90746 5.48236ZM5.84965 11.6573C5.98286 11.6634 6.5229 11.8091 6.68547 11.8538C8.0228 12.2214 9.41912 12.6966 10.4263 13.6894C11.2692 14.5203 11.6462 15.8052 11.6384 16.9662L11.5584 16.8302C11.3846 16.553 11.2445 16.3363 11.0452 16.079C10.3565 15.1772 9.35798 14.6356 8.28532 14.3197C7.66247 14.1294 7.02025 14.0039 6.50637 13.5738C6.04625 13.1975 5.76733 12.6503 5.66601 12.0699C5.63138 11.8716 5.60594 11.7058 5.84965 11.6573ZM17.5247 8.65409C17.4263 8.66802 17.3431 8.73441 17.3078 8.82716C17.2937 8.86404 17.2881 8.90286 17.2904 8.94102C17.294 8.99881 17.316 9.05507 17.3547 9.10072C17.4188 9.17648 17.5195 9.21093 17.6169 9.19141C17.7612 9.16224 17.8563 9.02384 17.8315 8.87854C17.8067 8.73312 17.6708 8.63349 17.5247 8.65409Z" fill="#F47D4E"/>
<path d="M4.94295 14.125C4.98736 14.1142 5.365 14.1477 5.4387 14.1545C6.69117 14.2815 7.91168 14.6266 9.04573 15.1732C9.196 15.2451 9.33934 15.3298 9.48403 15.412C10.5575 16.0219 11.4276 16.9326 11.8441 18.1099C11.7907 18.0582 11.771 18.0398 11.7277 17.9784C11.4178 17.6603 11.0561 17.3417 10.6879 17.1078C9.20399 16.1654 7.36962 15.8396 5.63368 15.8821C5.44373 15.8868 5.27989 15.8395 5.19914 15.644C5.03619 15.2497 4.85681 14.8489 4.7185 14.4447C4.70465 14.4045 4.70861 14.3299 4.71019 14.286C4.78503 14.1754 4.80818 14.1547 4.94295 14.125ZM7.10732 8.12164C7.24292 8.13981 7.28521 8.22688 7.35746 8.33324C8.58139 10.1347 11.207 10.4029 12.1441 12.4852C12.5841 13.4628 12.3537 14.4572 11.984 15.412C11.9556 15.4981 11.9118 15.6028 11.8782 15.6886C11.6248 14.0712 10.8805 12.9941 9.41152 12.2501C8.95992 12.0215 8.51717 11.8177 8.11771 11.502C7.26763 10.83 6.88642 9.76305 6.92746 8.70052C6.93336 8.54804 6.90871 8.38374 6.966 8.23802C6.99461 8.16552 7.03859 8.14959 7.10732 8.12164Z" fill="#FAFAF8"/>
</g>
</svg>
