<svg xmlns="http://www.w3.org/2000/svg" width="24" height="24" viewBox="0 0 24 24" fill="currentColor">
  <g transform="translate(2.25 3)"><path d="M 9.395 17.91 L 9.388 17.907 L 9.366 17.895 C 9.237 17.824 9.11 17.752 8.983 17.677 C 7.461 16.773 6.038 15.71 4.739 14.507 C 2.438 12.36 0 9.174 0 5.25 C 0 2.322 2.464 0 5.438 0 C 6.265 -0.004 7.082 0.178 7.828 0.534 C 8.575 0.889 9.232 1.408 9.75 2.052 C 10.268 1.408 10.925 0.889 11.672 0.533 C 12.419 0.178 13.236 -0.004 14.063 0 C 17.036 0 19.5 2.322 19.5 5.25 C 19.5 9.175 17.062 12.361 14.761 14.506 C 13.462 15.709 12.039 16.772 10.517 17.676 C 10.39 17.751 10.263 17.824 10.134 17.895 L 10.112 17.907 L 10.105 17.911 L 10.102 17.912 C 9.994 17.97 9.873 18 9.75 18 C 9.627 18 9.506 17.97 9.398 17.912 L 9.395 17.91 Z" fill="currentColor" fill-rule="nonzero"></path></g>
</svg>