<svg xmlns="http://www.w3.org/2000/svg" width="24" height="24" viewBox="0 0 24 24" fill="currentColor">
  <g transform="translate(3 3.75)"><path d="M 9 2.733 L 8.315 3.038 C 8.435 3.309 8.704 3.483 9 3.483 C 9.296 3.483 9.565 3.309 9.685 3.038 L 9 2.733 Z M 9 16.5 L 8.648 17.162 C 8.868 17.279 9.132 17.279 9.352 17.162 L 9 16.5 Z M 18 4.5 L 18.75 4.5 C 18.75 1.572 16.286 -0.75 13.312 -0.75 L 13.312 0 L 13.312 0.75 C 15.516 0.75 17.25 2.458 17.25 4.5 L 18 4.5 Z M 13.312 0 L 13.312 -0.75 C 11.084 -0.75 9.151 0.548 8.315 2.428 L 9 2.733 L 9.685 3.038 C 10.279 1.704 11.67 0.75 13.312 0.75 L 13.312 0 Z M 9 2.733 L 9.685 2.428 C 8.849 0.548 6.916 -0.75 4.687 -0.75 L 4.687 0 L 4.687 0.75 C 6.33 0.75 7.721 1.704 8.315 3.038 L 9 2.733 Z M 4.687 0 L 4.687 -0.75 C 1.715 -0.75 -0.75 1.572 -0.75 4.5 L 0 4.5 L 0.75 4.5 C 0.75 2.458 2.485 0.75 4.687 0.75 L 4.687 0 Z M 0 4.5 L -0.75 4.5 C -0.75 8.425 1.688 11.611 3.989 13.756 C 5.151 14.84 6.311 15.688 7.179 16.265 C 7.613 16.554 7.976 16.776 8.233 16.927 C 8.361 17.002 8.463 17.06 8.534 17.1 C 8.569 17.119 8.596 17.134 8.616 17.145 C 8.625 17.15 8.633 17.154 8.638 17.157 C 8.641 17.159 8.643 17.16 8.645 17.161 C 8.646 17.161 8.646 17.161 8.647 17.162 C 8.647 17.162 8.648 17.162 8.648 17.162 C 8.648 17.162 8.648 17.162 9 16.5 C 9.352 15.838 9.352 15.838 9.352 15.838 C 9.352 15.838 9.352 15.838 9.352 15.838 C 9.352 15.838 9.352 15.838 9.352 15.838 C 9.351 15.837 9.35 15.837 9.349 15.836 C 9.345 15.834 9.34 15.831 9.333 15.827 C 9.318 15.819 9.295 15.807 9.264 15.79 C 9.203 15.755 9.111 15.703 8.994 15.634 C 8.758 15.495 8.418 15.288 8.009 15.016 C 7.189 14.471 6.099 13.673 5.011 12.659 C 2.812 10.609 0.75 7.795 0.75 4.5 L 0 4.5 Z M 9 16.5 C 9.352 17.162 9.352 17.162 9.352 17.162 C 9.352 17.162 9.353 17.162 9.353 17.162 C 9.354 17.161 9.354 17.161 9.355 17.161 C 9.357 17.16 9.359 17.159 9.362 17.157 C 9.367 17.154 9.375 17.15 9.384 17.145 C 9.404 17.134 9.431 17.119 9.466 17.1 C 9.537 17.06 9.639 17.002 9.767 16.927 C 10.024 16.776 10.387 16.554 10.821 16.265 C 11.689 15.688 12.849 14.84 14.011 13.756 C 16.312 11.611 18.75 8.425 18.75 4.5 L 18 4.5 L 17.25 4.5 C 17.25 7.795 15.188 10.609 12.989 12.659 C 11.901 13.673 10.811 14.471 9.991 15.016 C 9.582 15.288 9.242 15.495 9.006 15.634 C 8.889 15.703 8.797 15.755 8.736 15.79 C 8.705 15.807 8.682 15.819 8.667 15.827 C 8.66 15.831 8.655 15.834 8.651 15.836 C 8.65 15.837 8.649 15.837 8.648 15.838 C 8.648 15.838 8.648 15.838 8.648 15.838 C 8.648 15.838 8.648 15.838 8.648 15.838 C 8.648 15.838 8.648 15.838 9 16.5 Z" fill="currentColor" fill-rule="nonzero"></path></g>
</svg>