<svg xmlns="http://www.w3.org/2000/svg" width="24" height="24" viewBox="0 0 24 24" fill="currentColor">
  <g transform="translate(1.49 2.121)"><path d="M 9.98 1.72 C 10.12 1.58 10.311 1.501 10.51 1.501 C 10.708 1.501 10.899 1.58 11.04 1.72 L 19.73 10.41 C 19.799 10.482 19.882 10.539 19.973 10.578 C 20.065 10.617 20.163 10.638 20.263 10.639 C 20.362 10.64 20.461 10.62 20.553 10.583 C 20.645 10.545 20.729 10.489 20.8 10.419 C 20.87 10.348 20.926 10.265 20.963 10.172 C 21.001 10.08 21.02 9.981 21.019 9.882 C 21.018 9.782 20.997 9.684 20.958 9.592 C 20.919 9.501 20.861 9.418 20.79 9.349 L 12.101 0.659 C 11.892 0.45 11.644 0.284 11.371 0.171 C 11.098 0.058 10.805 0 10.51 0 C 10.214 0 9.922 0.058 9.649 0.171 C 9.376 0.284 9.128 0.45 8.919 0.659 L 0.229 9.349 C 0.157 9.418 0.1 9.501 0.061 9.593 C 0.021 9.684 0.001 9.782 0 9.882 C -0.001 9.982 0.018 10.08 0.056 10.173 C 0.094 10.265 0.149 10.348 0.22 10.419 C 0.29 10.489 0.374 10.545 0.466 10.583 C 0.559 10.62 0.657 10.639 0.757 10.638 C 0.856 10.637 0.955 10.617 1.046 10.577 C 1.138 10.538 1.221 10.481 1.29 10.409 L 9.98 1.72 Z" fill="currentColor" fill-rule="nonzero"></path></g>
  <g transform="translate(3.75 5.432)"><path d="M 8.25 0 L 16.409 8.159 C 16.439 8.189 16.469 8.217 16.5 8.245 L 16.5 14.443 C 16.5 15.478 15.66 16.318 14.625 16.318 L 11.25 16.318 C 11.051 16.318 10.86 16.239 10.72 16.098 C 10.579 15.958 10.5 15.767 10.5 15.568 L 10.5 11.068 C 10.5 10.869 10.421 10.678 10.28 10.538 C 10.14 10.397 9.949 10.318 9.75 10.318 L 6.75 10.318 C 6.551 10.318 6.36 10.397 6.22 10.538 C 6.079 10.678 6 10.869 6 11.068 L 6 15.568 C 6 15.767 5.921 15.958 5.78 16.098 C 5.64 16.239 5.449 16.318 5.25 16.318 L 1.875 16.318 C 1.378 16.318 0.901 16.12 0.549 15.769 C 0.198 15.417 0 14.94 0 14.443 L 0 8.245 C 0.031 8.217 0.061 8.188 0.091 8.159 L 8.25 0 Z" fill="currentColor" fill-rule="nonzero"></path></g>
</svg>