<svg xmlns="http://www.w3.org/2000/svg" width="24" height="24" viewBox="0 0 24 24" fill="currentColor">
  <g transform="translate(4 2)"><path d="M 13 7 L 13 5 C 13 2.2 10.8 0 8 0 C 5.2 0 3 2.2 3 5 L 3 7 C 1.3 7 0 8.3 0 10 L 0 17 C 0 18.7 1.3 20 3 20 L 13 20 C 14.7 20 16 18.7 16 17 L 16 10 C 16 8.3 14.7 7 13 7 Z M 5 5 C 5 3.3 6.3 2 8 2 C 9.7 2 11 3.3 11 5 L 11 7 L 5 7 L 5 5 Z M 9.1 13.5 L 9 13.6 L 9 15 C 9 15.6 8.6 16 8 16 C 7.4 16 7 15.6 7 15 L 7 13.6 C 6.4 13 6.3 12.1 6.9 11.5 C 7.5 10.9 8.4 10.8 9 11.4 C 9.6 11.9 9.7 12.9 9.1 13.5 Z" fill="currentColor" fill-rule="nonzero"></path></g>
</svg>