<svg xmlns="http://www.w3.org/2000/svg" width="24" height="24" viewBox="0 0 24 24" fill="currentColor">
  <g transform="translate(4 2)"><path d="M 8 11 C 7.696 10.996 7.397 11.086 7.145 11.257 C 6.894 11.428 6.7 11.672 6.591 11.957 C 6.482 12.241 6.463 12.552 6.536 12.848 C 6.609 13.143 6.771 13.409 7 13.61 L 7 15 C 7 15.265 7.105 15.52 7.293 15.707 C 7.48 15.895 7.735 16 8 16 C 8.265 16 8.52 15.895 8.707 15.707 C 8.895 15.52 9 15.265 9 15 L 9 13.61 C 9.229 13.409 9.391 13.143 9.464 12.848 C 9.537 12.552 9.518 12.241 9.409 11.957 C 9.3 11.672 9.106 11.428 8.855 11.257 C 8.603 11.086 8.304 10.996 8 11 Z M 13 7 L 13 5 C 13 3.674 12.473 2.402 11.536 1.464 C 10.598 0.527 9.326 0 8 0 C 6.674 0 5.402 0.527 4.464 1.464 C 3.527 2.402 3 3.674 3 5 L 3 7 C 2.204 7 1.441 7.316 0.879 7.879 C 0.316 8.441 0 9.204 0 10 L 0 17 C 0 17.796 0.316 18.559 0.879 19.121 C 1.441 19.684 2.204 20 3 20 L 13 20 C 13.796 20 14.559 19.684 15.121 19.121 C 15.684 18.559 16 17.796 16 17 L 16 10 C 16 9.204 15.684 8.441 15.121 7.879 C 14.559 7.316 13.796 7 13 7 Z M 5 5 C 5 4.204 5.316 3.441 5.879 2.879 C 6.441 2.316 7.204 2 8 2 C 8.796 2 9.559 2.316 10.121 2.879 C 10.684 3.441 11 4.204 11 5 L 11 7 L 5 7 L 5 5 Z M 14 17 C 14 17.265 13.895 17.52 13.707 17.707 C 13.52 17.895 13.265 18 13 18 L 3 18 C 2.735 18 2.48 17.895 2.293 17.707 C 2.105 17.52 2 17.265 2 17 L 2 10 C 2 9.735 2.105 9.48 2.293 9.293 C 2.48 9.105 2.735 9 3 9 L 13 9 C 13.265 9 13.52 9.105 13.707 9.293 C 13.895 9.48 14 9.735 14 10 L 14 17 Z" fill="currentColor" fill-rule="nonzero"></path></g>
</svg>