<svg width="59" height="80" viewBox="0 0 59 80" fill="none" xmlns="http://www.w3.org/2000/svg">
<path d="M31.4492 76.3509C31.1422 77.2105 30.3192 77.7948 29.3769 77.7948C28.4935 77.7948 27.7143 77.2816 27.3675 76.509L27.3039 76.3516L1.63472 4.43179L1.63403 4.42972C1.3409 3.6131 1.53932 2.74285 2.13674 2.14544L2.17057 2.1116C2.78784 1.51494 3.71029 1.33735 4.50665 1.65792L4.51079 1.6593L28.8203 11.3654L29.3769 11.5878L29.9328 11.3661L54.243 1.6593L54.2465 1.65723L54.397 1.60337C55.1567 1.36085 56.0037 1.55158 56.5826 2.11091C57.2103 2.71772 57.4196 3.61182 57.1233 4.41937L57.1184 4.43249L31.4499 76.3516L31.4492 76.3509Z" fill="#FFF3EE" stroke="#FDD4BE" stroke-width="3"/>
</svg>
