<svg xmlns="http://www.w3.org/2000/svg" width="24" height="24" viewBox="0 0 24 24" fill="currentColor">
  <g transform="translate(2.654 2)"><path d="M 18.305 0.732 C 17.859 0.263 17.255 0 16.625 0 C 15.995 0 15.391 0.263 14.946 0.732 L 13.899 1.834 L 17.258 5.369 L 18.305 4.267 C 18.75 3.799 19 3.163 19 2.5 C 19 1.837 18.75 1.201 18.305 0.732 Z M 16.298 6.38 L 12.939 2.844 L 1.946 14.416 C 1.388 15.003 0.978 15.728 0.752 16.525 L 0.028 19.082 C -0.007 19.205 -0.009 19.336 0.021 19.461 C 0.051 19.586 0.112 19.7 0.199 19.791 C 0.285 19.882 0.394 19.947 0.512 19.978 C 0.631 20.01 0.755 20.007 0.872 19.97 L 3.302 19.208 C 4.058 18.971 4.747 18.539 5.305 17.951 L 16.298 6.38 Z" fill="currentColor" fill-rule="nonzero"></path></g>
</svg>