<svg width="24" height="24" viewBox="0 0 24 24" fill="none" xmlns="http://www.w3.org/2000/svg">
<g clip-path="url(#clip0_329_1010)">
<path d="M23.505 6.09C23.65 6.03759 23.7752 5.9418 23.8638 5.81565C23.9524 5.68951 23.9999 5.53914 24 5.385V0.75C24 0.551088 23.921 0.360323 23.7803 0.21967C23.6397 0.079018 23.4489 3.29095e-07 23.25 3.29095e-07H18.615C18.4608 -0.000144061 18.3104 0.0472283 18.1841 0.135668C18.0578 0.224108 17.9618 0.349317 17.9093 0.49425C17.8057 0.786078 17.615 1.03905 17.3629 1.21893C17.1109 1.39882 16.8096 1.49693 16.5 1.5C16.1904 1.49693 15.8891 1.39882 15.6371 1.21893C15.385 1.03905 15.1943 0.786078 15.0907 0.49425C15.0382 0.349317 14.9422 0.224108 14.8159 0.135668C14.6896 0.0472283 14.5392 -0.000144061 14.385 3.29095e-07H9.615C9.46083 -0.000144061 9.31035 0.0472283 9.18407 0.135668C9.05779 0.224108 8.96182 0.349317 8.90925 0.49425C8.80569 0.786078 8.61498 1.03905 8.36292 1.21893C8.11087 1.39882 7.80964 1.49693 7.5 1.5C7.19036 1.49693 6.88913 1.39882 6.63708 1.21893C6.38502 1.03905 6.19431 0.786078 6.09075 0.49425C6.03818 0.349317 5.94222 0.224108 5.81593 0.135668C5.68965 0.0472283 5.53917 -0.000144061 5.385 3.29095e-07H0.75C0.551088 3.29095e-07 0.360322 0.079018 0.21967 0.21967C0.0790176 0.360323 0 0.551088 0 0.75L0 5.385C6.55797e-05 5.53914 0.0476193 5.68951 0.13619 5.81565C0.224761 5.9418 0.350047 6.03759 0.495 6.09C0.786688 6.19392 1.03946 6.38484 1.21918 6.63699C1.39891 6.88914 1.49693 7.19037 1.5 7.5C1.49693 7.80963 1.39891 8.11086 1.21918 8.36301C1.03946 8.61516 0.786688 8.80608 0.495 8.91C0.350047 8.96241 0.224761 9.0582 0.13619 9.18435C0.0476193 9.31049 6.55797e-05 9.46086 0 9.615L0 14.385C6.55797e-05 14.5391 0.0476193 14.6895 0.13619 14.8157C0.224761 14.9418 0.350047 15.0376 0.495 15.09C0.786688 15.1939 1.03946 15.3848 1.21918 15.637C1.39891 15.8891 1.49693 16.1904 1.5 16.5C1.49693 16.8096 1.39891 17.1109 1.21918 17.363C1.03946 17.6152 0.786688 17.8061 0.495 17.91C0.350047 17.9624 0.224761 18.0582 0.13619 18.1843C0.0476193 18.3105 6.55797e-05 18.4609 0 18.615L0 23.25C0 23.4489 0.0790176 23.6397 0.21967 23.7803C0.360322 23.921 0.551088 24 0.75 24H5.385C5.53917 24.0001 5.68965 23.9528 5.81593 23.8643C5.94222 23.7759 6.03818 23.6507 6.09075 23.5057C6.19168 23.2123 6.38173 22.9576 6.63437 22.7773C6.88701 22.597 7.18963 22.5001 7.5 22.5001C7.81037 22.5001 8.11299 22.597 8.36563 22.7773C8.61827 22.9576 8.80832 23.2123 8.90925 23.5057C8.96182 23.6507 9.05779 23.7759 9.18407 23.8643C9.31035 23.9528 9.46083 24.0001 9.615 24H14.385C14.5392 24.0001 14.6896 23.9528 14.8159 23.8643C14.9422 23.7759 15.0382 23.6507 15.0907 23.5057C15.1917 23.2123 15.3817 22.9576 15.6344 22.7773C15.887 22.597 16.1896 22.5001 16.5 22.5001C16.8104 22.5001 17.113 22.597 17.3656 22.7773C17.6183 22.9576 17.8083 23.2123 17.9093 23.5057C17.9618 23.6507 18.0578 23.7759 18.1841 23.8643C18.3104 23.9528 18.4608 24.0001 18.615 24H23.25C23.4489 24 23.6397 23.921 23.7803 23.7803C23.921 23.6397 24 23.4489 24 23.25V18.615C23.9999 18.4609 23.9524 18.3105 23.8638 18.1843C23.7752 18.0582 23.65 17.9624 23.505 17.91C23.2117 17.8087 22.9573 17.6184 22.7772 17.3657C22.5971 17.1129 22.5003 16.8103 22.5003 16.5C22.5003 16.1897 22.5971 15.8871 22.7772 15.6343C22.9573 15.3816 23.2117 15.1913 23.505 15.09C23.65 15.0376 23.7752 14.9418 23.8638 14.8157C23.9524 14.6895 23.9999 14.5391 24 14.385V9.615C23.9999 9.46086 23.9524 9.31049 23.8638 9.18435C23.7752 9.0582 23.65 8.96241 23.505 8.91C23.2117 8.80868 22.9573 8.6184 22.7772 8.36567C22.5971 8.11294 22.5003 7.81033 22.5003 7.5C22.5003 7.18967 22.5971 6.88707 22.7772 6.63433C22.9573 6.3816 23.2117 6.19132 23.505 6.09ZM22.5 4.911C22.0449 5.17251 21.6668 5.54942 21.4039 6.00372C21.141 6.45801 21.0026 6.97361 21.0026 7.4985C21.0026 8.02339 21.141 8.53899 21.4039 8.99328C21.6668 9.44758 22.0449 9.82449 22.5 10.086V13.911C22.0449 14.1725 21.6668 14.5494 21.4039 15.0037C21.141 15.458 21.0026 15.9736 21.0026 16.4985C21.0026 17.0234 21.141 17.539 21.4039 17.9933C21.6668 18.4476 22.0449 18.8245 22.5 19.086V22.5H19.089C18.8275 22.0449 18.4506 21.6668 17.9963 21.4039C17.542 21.141 17.0264 21.0026 16.5015 21.0026C15.9766 21.0026 15.461 21.141 15.0067 21.4039C14.5524 21.6668 14.1755 22.0449 13.914 22.5H10.089C9.82749 22.0449 9.45058 21.6668 8.99628 21.4039C8.54199 21.141 8.02639 21.0026 7.5015 21.0026C6.97661 21.0026 6.46101 21.141 6.00672 21.4039C5.55242 21.6668 5.17551 22.0449 4.914 22.5H1.5V19.089C1.95412 18.8258 2.33148 18.4483 2.59462 17.9942C2.85776 17.54 2.99751 17.0249 3 16.5C2.99751 15.9751 2.85776 15.46 2.59462 15.0058C2.33148 14.5517 1.95412 14.1742 1.5 13.911V10.086C1.95368 9.82303 2.33077 9.44606 2.59388 8.99246C2.85699 8.53886 2.99699 8.02438 3 7.5C2.99751 6.97511 2.85776 6.46001 2.59462 6.00584C2.33148 5.55166 1.95412 5.17423 1.5 4.911V1.5H4.911C5.17423 1.95412 5.55166 2.33148 6.00584 2.59462C6.46001 2.85776 6.97511 2.99751 7.5 3C8.02489 2.99751 8.53999 2.85776 8.99416 2.59462C9.44834 2.33148 9.82577 1.95412 10.089 1.5H13.914C14.177 1.95368 14.5539 2.33077 15.0075 2.59388C15.4611 2.85699 15.9756 2.99699 16.5 3C17.0249 2.99751 17.54 2.85776 17.9942 2.59462C18.4483 2.33148 18.8258 1.95412 19.089 1.5H22.5V4.911Z" fill="#2A2924"/>
<path d="M5.25 4.5C5.05109 4.5 4.86032 4.57902 4.71967 4.71967C4.57902 4.86032 4.5 5.05109 4.5 5.25V18.75C4.5 18.9489 4.57902 19.1397 4.71967 19.2803C4.86032 19.421 5.05109 19.5 5.25 19.5H18.75C18.9489 19.5 19.1397 19.421 19.2803 19.2803C19.421 19.1397 19.5 18.9489 19.5 18.75V5.25C19.5 5.05109 19.421 4.86032 19.2803 4.71967C19.1397 4.57902 18.9489 4.5 18.75 4.5H5.25ZM18 18H6V6H18V18Z" fill="#2A2924"/>
</g>
<defs>
<clipPath id="clip0_329_1010">
<rect width="24" height="24" fill="white"/>
</clipPath>
</defs>
</svg>
