<svg xmlns="http://www.w3.org/2000/svg" width="24" height="24" viewBox="0 0 24 24" fill="currentColor">
  <g transform="translate(5 2)"><path d="M 6.996 22 C 12.156 22 13.776 21.985 13.843 21.936 C 13.956 21.854 13.956 21.563 13.843 21.48 C 13.776 21.432 12.155 21.417 6.99 21.417 C 0.937 21.417 0.213 21.426 0.11 21.5 C -0.039 21.608 -0.036 21.781 0.116 21.903 C 0.232 21.996 0.54 22 6.996 22 Z M 8.714 20.405 C 12.443 20.408 13.57 20.393 13.712 20.341 C 13.946 20.256 14.009 19.946 13.813 19.842 C 13.639 19.75 3.968 19.741 3.689 19.833 C 3.378 19.936 3.405 20.259 3.733 20.354 C 3.826 20.382 5.988 20.404 8.714 20.405 Z" fill="currentColor" fill-rule="evenodd"></path>
  <path d="M 1.323 20.399 C 1.438 20.482 1.782 20.481 1.872 20.396 C 1.954 20.32 2.043 20.069 2.257 19.323 C 2.34 19.031 2.44 18.697 2.478 18.581 C 2.517 18.464 2.682 17.915 2.847 17.361 C 3.012 16.807 3.173 16.27 3.205 16.169 C 3.238 16.067 3.324 15.785 3.397 15.544 C 3.505 15.185 3.556 15.101 3.678 15.085 C 5.35 14.856 6.093 14.698 6.937 14.388 C 8.457 13.833 9.689 12.936 10.367 11.893 C 10.605 11.526 10.637 11.438 10.574 11.317 L 10.499 11.174 L 9.779 11.211 C 9.318 11.235 9.044 11.23 9.015 11.196 C 8.989 11.166 9.265 10.971 9.626 10.761 C 10.631 10.179 11.236 9.632 11.972 8.641 C 12.389 8.079 12.86 6.964 12.822 6.631 C 12.8 6.446 12.792 6.441 12.508 6.446 C 12.347 6.448 12.026 6.482 11.795 6.52 C 11.563 6.558 11.359 6.578 11.342 6.565 C 11.324 6.553 11.568 6.349 11.883 6.113 C 13.008 5.269 13.631 4.397 13.896 3.293 C 14.111 2.404 13.979 1.017 13.629 0.491 C 13.21 -0.141 12.169 -0.163 10.559 0.425 C 9.159 0.936 7.913 1.739 7.22 2.578 C 6.786 3.105 6.602 3.416 6.388 3.993 C 6.303 4.221 6.201 4.407 6.163 4.407 C 6.123 4.407 6.024 4.257 5.941 4.072 C 5.75 3.644 5.713 3.605 5.508 3.605 C 5.028 3.605 3.532 5.258 2.988 6.388 C 2.667 7.057 2.476 7.929 2.476 8.73 C 2.476 9.235 2.454 9.387 2.385 9.372 C 2.334 9.361 2.149 9.192 1.972 8.996 C 1.476 8.447 1.213 8.526 0.845 9.335 C 0.553 9.976 0.433 10.513 0.433 11.188 C 0.433 12.132 0.677 12.816 1.321 13.677 C 1.767 14.275 2.005 14.422 2.242 14.25 C 2.389 14.143 2.343 14.003 2.032 13.616 C 1.619 13.102 1.33 12.573 1.191 12.074 C 1.032 11.504 1.083 10.476 1.3 9.891 C 1.385 9.66 1.468 9.462 1.484 9.45 C 1.501 9.438 1.657 9.541 1.831 9.678 C 2.368 10.102 2.889 10.281 3.114 10.118 C 3.173 10.075 3.185 9.796 3.154 9.15 C 3.095 7.859 3.232 7.201 3.765 6.233 C 4.147 5.539 5.115 4.4 5.323 4.4 C 5.361 4.4 5.472 4.515 5.571 4.656 C 5.883 5.104 6.47 5.38 6.691 5.182 C 6.731 5.145 6.786 4.984 6.814 4.824 C 7.048 3.453 8.197 2.076 9.742 1.318 C 10.287 1.051 11.375 0.648 11.81 0.552 C 12.2 0.466 12.645 0.456 12.832 0.528 C 13.279 0.702 13.531 2.333 13.253 3.263 C 12.892 4.475 11.785 5.738 10.537 6.362 C 10.121 6.57 10.017 6.703 10.141 6.871 C 10.261 7.034 10.564 7.073 11.424 7.036 L 12.107 7.006 L 12.063 7.148 C 11.637 8.527 10.25 9.929 8.386 10.861 C 7.861 11.123 7.762 11.197 7.743 11.334 C 7.726 11.456 7.76 11.512 7.878 11.558 C 8.016 11.611 9.066 11.71 9.543 11.714 C 9.746 11.716 9.73 11.764 9.385 12.187 C 8.876 12.811 7.647 13.603 6.598 13.983 C 5.987 14.204 4.293 14.574 3.87 14.577 C 3.684 14.579 3.807 14.217 4.7 12.14 C 5.059 11.304 5.708 10.031 6.323 8.959 C 6.891 7.968 8.35 5.904 8.996 5.175 C 9.128 5.026 9.349 4.772 9.486 4.612 C 9.622 4.452 9.908 4.153 10.118 3.949 C 10.412 3.666 10.498 3.541 10.484 3.419 C 10.468 3.282 10.432 3.258 10.231 3.244 C 10.212 3.242 10.194 3.241 10.177 3.239 C 10.147 3.236 10.12 3.233 10.095 3.235 C 9.973 3.244 9.868 3.36 9.255 4.029 C 9.188 4.103 9.114 4.183 9.033 4.271 C 6.192 7.37 4.14 11.146 2.368 16.54 L 2.283 16.798 C 1.226 20.015 1.149 20.252 1.276 20.364 C 1.287 20.373 1.298 20.381 1.31 20.39 C 1.314 20.393 1.319 20.396 1.323 20.399 Z" fill="currentColor" fill-rule="nonzero"></path></g>
  <g transform="translate(5.43 2)"><path d="M 0.89 20.399 C 1.005 20.482 1.349 20.481 1.439 20.396 C 1.52 20.32 1.61 20.069 1.824 19.323 C 1.907 19.031 2.007 18.697 2.045 18.581 C 2.084 18.464 2.249 17.915 2.414 17.361 C 2.579 16.807 2.74 16.27 2.772 16.169 C 2.805 16.067 2.891 15.785 2.964 15.544 C 3.072 15.185 3.123 15.101 3.245 15.085 C 4.917 14.856 5.66 14.698 6.504 14.388 C 8.024 13.833 9.256 12.936 9.934 11.893 C 10.172 11.526 10.204 11.438 10.141 11.317 L 10.066 11.174 L 9.346 11.211 C 8.885 11.235 8.611 11.23 8.581 11.196 C 8.556 11.166 8.832 10.971 9.193 10.761 C 10.198 10.179 10.803 9.632 11.539 8.641 C 11.956 8.079 12.427 6.964 12.388 6.631 C 12.367 6.446 12.359 6.441 12.075 6.446 C 11.914 6.448 11.593 6.482 11.362 6.52 C 11.13 6.558 10.926 6.578 10.909 6.565 C 10.891 6.553 11.135 6.349 11.45 6.113 C 12.575 5.269 13.198 4.397 13.463 3.293 C 13.678 2.404 13.546 1.017 13.196 0.491 C 12.777 -0.141 11.736 -0.163 10.126 0.425 C 8.726 0.936 7.48 1.739 6.787 2.578 C 6.353 3.105 6.169 3.416 5.955 3.993 C 5.87 4.221 5.768 4.407 5.729 4.407 C 5.69 4.407 5.591 4.257 5.508 4.072 C 5.317 3.644 5.28 3.605 5.075 3.605 C 4.595 3.605 3.099 5.258 2.555 6.388 C 2.234 7.057 2.043 7.929 2.043 8.73 C 2.043 9.235 2.021 9.387 1.952 9.372 C 1.901 9.361 1.716 9.192 1.539 8.996 C 1.043 8.447 0.78 8.526 0.411 9.335 C 0.12 9.976 0 10.513 0 11.188 C 0 12.132 0.244 12.816 0.888 13.677 C 1.334 14.275 1.572 14.422 1.809 14.25 C 1.956 14.143 1.91 14.003 1.599 13.616 C 1.186 13.102 0.897 12.573 0.758 12.074 C 0.599 11.504 0.65 10.476 0.867 9.891 C 0.952 9.66 1.035 9.462 1.051 9.45 C 1.068 9.438 1.224 9.541 1.398 9.678 C 1.935 10.102 2.456 10.281 2.681 10.118 C 2.74 10.075 2.752 9.796 2.721 9.15 C 2.662 7.859 2.799 7.201 3.332 6.233 C 3.714 5.539 4.682 4.4 4.89 4.4 C 4.928 4.4 5.039 4.515 5.138 4.656 C 5.45 5.104 6.037 5.38 6.258 5.182 C 6.298 5.145 6.353 4.984 6.381 4.824 C 6.614 3.453 7.764 2.076 9.309 1.318 C 9.854 1.051 10.942 0.648 11.377 0.552 C 11.767 0.466 12.212 0.456 12.399 0.528 C 12.846 0.702 13.098 2.333 12.82 3.263 C 12.459 4.475 11.352 5.738 10.104 6.362 C 9.688 6.57 9.584 6.703 9.708 6.871 C 9.828 7.034 10.131 7.073 10.991 7.036 L 11.673 7.006 L 11.63 7.148 C 11.204 8.527 9.817 9.929 7.953 10.861 C 7.428 11.123 7.329 11.197 7.31 11.334 C 7.293 11.456 7.327 11.512 7.445 11.558 C 7.583 11.611 8.633 11.71 9.11 11.714 C 9.313 11.716 9.297 11.764 8.952 12.187 C 8.443 12.811 7.214 13.603 6.165 13.983 C 5.554 14.204 3.86 14.573 3.437 14.577 C 3.251 14.579 3.374 14.217 4.267 12.14 C 4.626 11.304 5.275 10.031 5.89 8.959 C 6.458 7.968 7.917 5.904 8.563 5.175 C 8.695 5.026 8.916 4.772 9.053 4.612 C 9.189 4.452 9.474 4.153 9.685 3.949 C 9.979 3.666 10.065 3.541 10.051 3.419 C 10.035 3.282 9.999 3.258 9.798 3.244 C 9.779 3.242 9.761 3.241 9.744 3.239 C 9.714 3.236 9.687 3.233 9.662 3.235 C 9.54 3.244 9.435 3.36 8.822 4.029 C 8.754 4.103 8.681 4.183 8.6 4.271 C 5.759 7.37 3.707 11.146 1.935 16.54 L 1.85 16.798 C 0.793 20.015 0.716 20.252 0.843 20.364 C 0.854 20.373 0.865 20.381 0.877 20.39 C 0.881 20.393 0.886 20.396 0.89 20.399 Z" fill="currentColor" fill-rule="nonzero"></path>
  <path d="M 0.89 20.399 L 0.978 20.278 L 0.978 20.278 L 0.89 20.399 Z M 1.439 20.396 L 1.336 20.287 L 1.336 20.287 L 1.439 20.396 Z M 1.824 19.323 L 1.968 19.364 L 1.968 19.364 L 1.824 19.323 Z M 2.045 18.581 L 1.903 18.533 L 1.902 18.534 L 2.045 18.581 Z M 2.964 15.544 L 3.107 15.587 L 3.107 15.587 L 2.964 15.544 Z M 3.245 15.085 L 3.265 15.233 L 3.265 15.233 L 3.245 15.085 Z M 6.504 14.388 L 6.453 14.248 L 6.453 14.248 L 6.504 14.388 Z M 9.934 11.893 L 10.06 11.974 L 10.06 11.974 L 9.934 11.893 Z M 10.141 11.317 L 10.008 11.386 L 10.008 11.387 L 10.141 11.317 Z M 10.066 11.174 L 10.199 11.105 L 10.155 11.02 L 10.058 11.025 L 10.066 11.174 Z M 9.346 11.211 L 9.338 11.062 L 9.338 11.062 L 9.346 11.211 Z M 8.581 11.196 L 8.696 11.099 L 8.694 11.097 L 8.581 11.196 Z M 9.193 10.761 L 9.118 10.632 L 9.118 10.632 L 9.193 10.761 Z M 11.539 8.641 L 11.418 8.551 L 11.418 8.552 L 11.539 8.641 Z M 12.388 6.631 L 12.239 6.648 L 12.239 6.648 L 12.388 6.631 Z M 12.075 6.446 L 12.077 6.596 L 12.077 6.596 L 12.075 6.446 Z M 11.362 6.52 L 11.386 6.668 L 11.386 6.668 L 11.362 6.52 Z M 11.45 6.113 L 11.54 6.233 L 11.54 6.233 L 11.45 6.113 Z M 13.463 3.293 L 13.317 3.258 L 13.317 3.258 L 13.463 3.293 Z M 13.196 0.491 L 13.071 0.574 L 13.071 0.574 L 13.196 0.491 Z M 10.126 0.425 L 10.075 0.284 L 10.075 0.284 L 10.126 0.425 Z M 6.787 2.578 L 6.672 2.482 L 6.672 2.482 L 6.787 2.578 Z M 5.955 3.993 L 6.095 4.045 L 6.096 4.045 L 5.955 3.993 Z M 5.508 4.072 L 5.645 4.011 L 5.645 4.011 L 5.508 4.072 Z M 2.555 6.388 L 2.42 6.323 L 2.42 6.323 L 2.555 6.388 Z M 1.952 9.372 L 1.984 9.225 L 1.984 9.225 L 1.952 9.372 Z M 1.539 8.996 L 1.651 8.896 L 1.651 8.895 L 1.539 8.996 Z M 0.411 9.335 L 0.275 9.273 L 0.275 9.273 L 0.411 9.335 Z M 0.888 13.677 L 1.008 13.587 L 1.008 13.587 L 0.888 13.677 Z M 1.809 14.25 L 1.898 14.371 L 1.898 14.371 L 1.809 14.25 Z M 1.599 13.616 L 1.482 13.71 L 1.482 13.71 L 1.599 13.616 Z M 0.758 12.074 L 0.903 12.034 L 0.903 12.034 L 0.758 12.074 Z M 0.867 9.891 L 1.007 9.943 L 1.007 9.943 L 0.867 9.891 Z M 1.051 9.45 L 1.14 9.571 L 1.14 9.571 L 1.051 9.45 Z M 1.398 9.678 L 1.491 9.56 L 1.491 9.56 L 1.398 9.678 Z M 2.681 10.118 L 2.769 10.239 L 2.769 10.239 L 2.681 10.118 Z M 2.721 9.15 L 2.572 9.157 L 2.572 9.157 L 2.721 9.15 Z M 3.332 6.233 L 3.201 6.161 L 3.201 6.161 L 3.332 6.233 Z M 5.138 4.656 L 5.261 4.571 L 5.261 4.571 L 5.138 4.656 Z M 6.258 5.182 L 6.358 5.293 L 6.359 5.293 L 6.258 5.182 Z M 6.381 4.824 L 6.529 4.85 L 6.529 4.849 L 6.381 4.824 Z M 9.309 1.318 L 9.243 1.184 L 9.243 1.184 L 9.309 1.318 Z M 11.377 0.552 L 11.345 0.405 L 11.345 0.405 L 11.377 0.552 Z M 12.399 0.528 L 12.454 0.389 L 12.454 0.389 L 12.399 0.528 Z M 12.82 3.263 L 12.677 3.22 L 12.677 3.22 L 12.82 3.263 Z M 10.104 6.362 L 10.171 6.496 L 10.171 6.496 L 10.104 6.362 Z M 9.708 6.871 L 9.829 6.782 L 9.829 6.782 L 9.708 6.871 Z M 10.991 7.036 L 10.997 7.186 L 10.997 7.186 L 10.991 7.036 Z M 11.673 7.006 L 11.817 7.05 L 11.88 6.847 L 11.667 6.856 L 11.673 7.006 Z M 11.63 7.148 L 11.486 7.103 L 11.486 7.103 L 11.63 7.148 Z M 7.953 10.861 L 7.885 10.727 L 7.885 10.727 L 7.953 10.861 Z M 7.31 11.334 L 7.161 11.313 L 7.161 11.314 L 7.31 11.334 Z M 7.445 11.558 L 7.39 11.697 L 7.39 11.697 L 7.445 11.558 Z M 9.11 11.714 L 9.111 11.564 L 9.111 11.564 L 9.11 11.714 Z M 8.952 12.187 L 9.068 12.282 L 9.068 12.282 L 8.952 12.187 Z M 6.165 13.983 L 6.216 14.124 L 6.216 14.124 L 6.165 13.983 Z M 3.437 14.577 L 3.438 14.727 L 3.438 14.727 L 3.437 14.577 Z M 4.267 12.14 L 4.404 12.199 L 4.404 12.199 L 4.267 12.14 Z M 5.89 8.959 L 5.76 8.884 L 5.76 8.884 L 5.89 8.959 Z M 8.563 5.175 L 8.451 5.075 L 8.45 5.075 L 8.563 5.175 Z M 9.053 4.612 L 9.167 4.71 L 9.167 4.709 L 9.053 4.612 Z M 9.685 3.949 L 9.581 3.841 L 9.581 3.842 L 9.685 3.949 Z M 10.051 3.419 L 10.2 3.402 L 10.2 3.402 L 10.051 3.419 Z M 9.798 3.244 L 9.786 3.393 L 9.788 3.393 L 9.798 3.244 Z M 9.744 3.239 L 9.729 3.388 L 9.73 3.388 L 9.744 3.239 Z M 9.662 3.235 L 9.653 3.085 L 9.65 3.085 L 9.662 3.235 Z M 8.822 4.029 L 8.711 3.928 L 8.711 3.928 L 8.822 4.029 Z M 8.6 4.271 L 8.711 4.372 L 8.711 4.372 L 8.6 4.271 Z M 1.935 16.54 L 1.792 16.493 L 1.792 16.493 L 1.935 16.54 Z M 1.85 16.798 L 1.993 16.845 L 1.993 16.845 L 1.85 16.798 Z M 0.843 20.364 L 0.744 20.477 L 0.744 20.477 L 0.843 20.364 Z M 0.877 20.39 L 0.79 20.512 L 0.79 20.512 L 0.877 20.39 Z M 0.89 20.399 L 0.802 20.52 C 0.856 20.559 0.923 20.581 0.981 20.593 C 1.043 20.605 1.11 20.611 1.174 20.611 C 1.239 20.61 1.305 20.604 1.365 20.59 C 1.419 20.578 1.49 20.555 1.541 20.506 L 1.439 20.396 L 1.336 20.287 C 1.343 20.28 1.337 20.289 1.298 20.298 C 1.264 20.306 1.22 20.31 1.173 20.311 C 1.126 20.311 1.08 20.306 1.042 20.299 C 1.023 20.295 1.007 20.29 0.996 20.286 C 0.99 20.284 0.986 20.282 0.983 20.28 C 0.98 20.279 0.978 20.278 0.978 20.278 L 0.89 20.399 Z M 1.439 20.396 L 1.541 20.506 C 1.58 20.47 1.611 20.422 1.637 20.369 C 1.664 20.315 1.692 20.247 1.723 20.161 C 1.784 19.991 1.861 19.737 1.968 19.364 L 1.824 19.323 L 1.68 19.282 C 1.573 19.655 1.498 19.9 1.441 20.06 C 1.412 20.14 1.389 20.196 1.37 20.234 C 1.35 20.273 1.338 20.285 1.336 20.287 L 1.439 20.396 Z M 1.824 19.323 L 1.968 19.364 C 2.051 19.073 2.151 18.741 2.188 18.627 L 2.045 18.581 L 1.902 18.534 C 1.864 18.654 1.763 18.99 1.68 19.282 L 1.824 19.323 Z M 2.045 18.581 L 2.187 18.628 C 2.227 18.508 2.394 17.957 2.558 17.404 L 2.414 17.361 L 2.27 17.319 C 2.105 17.874 1.94 18.42 1.903 18.533 L 2.045 18.581 Z M 2.414 17.361 L 2.558 17.404 C 2.723 16.85 2.884 16.314 2.916 16.214 L 2.772 16.169 L 2.629 16.124 C 2.597 16.227 2.435 16.765 2.27 17.319 L 2.414 17.361 Z M 2.772 16.169 L 2.916 16.214 C 2.948 16.111 3.034 15.829 3.107 15.587 L 2.964 15.544 L 2.82 15.5 C 2.747 15.742 2.661 16.023 2.629 16.124 L 2.772 16.169 Z M 2.964 15.544 L 3.107 15.587 C 3.162 15.405 3.197 15.313 3.227 15.264 C 3.24 15.243 3.248 15.238 3.248 15.237 C 3.249 15.237 3.249 15.237 3.251 15.236 C 3.253 15.235 3.257 15.234 3.265 15.233 L 3.245 15.085 L 3.224 14.936 C 3.178 14.942 3.128 14.957 3.081 14.988 C 3.035 15.019 3 15.061 2.971 15.108 C 2.918 15.195 2.873 15.324 2.82 15.5 L 2.964 15.544 Z M 3.245 15.085 L 3.265 15.233 C 4.94 15.004 5.696 14.844 6.556 14.529 L 6.504 14.388 L 6.453 14.248 C 5.624 14.551 4.893 14.708 3.224 14.936 L 3.245 15.085 Z M 6.504 14.388 L 6.556 14.529 C 8.097 13.966 9.36 13.053 10.06 11.974 L 9.934 11.893 L 9.808 11.811 C 9.153 12.82 7.951 13.7 6.453 14.248 L 6.504 14.388 Z M 9.934 11.893 L 10.06 11.974 C 10.177 11.795 10.255 11.666 10.292 11.563 C 10.311 11.509 10.322 11.453 10.318 11.396 C 10.314 11.338 10.295 11.289 10.273 11.247 L 10.141 11.317 L 10.008 11.387 C 10.018 11.405 10.019 11.413 10.019 11.417 C 10.019 11.421 10.019 11.434 10.009 11.462 C 9.986 11.526 9.929 11.624 9.808 11.811 L 9.934 11.893 Z M 10.141 11.317 L 10.274 11.248 L 10.199 11.105 L 10.066 11.174 L 9.933 11.244 L 10.008 11.386 L 10.141 11.317 Z M 10.066 11.174 L 10.058 11.025 L 9.338 11.062 L 9.346 11.211 L 9.354 11.361 L 10.074 11.324 L 10.066 11.174 Z M 9.346 11.211 L 9.338 11.062 C 9.109 11.074 8.929 11.078 8.805 11.075 C 8.742 11.074 8.697 11.071 8.668 11.067 C 8.661 11.066 8.656 11.065 8.652 11.065 C 8.649 11.064 8.647 11.063 8.647 11.064 C 8.648 11.064 8.649 11.064 8.65 11.065 C 8.652 11.065 8.655 11.067 8.659 11.068 C 8.665 11.071 8.68 11.08 8.696 11.099 L 8.581 11.196 L 8.467 11.292 C 8.501 11.332 8.546 11.346 8.56 11.351 C 8.582 11.357 8.606 11.362 8.628 11.365 C 8.674 11.371 8.732 11.374 8.799 11.375 C 8.934 11.378 9.122 11.373 9.354 11.361 L 9.346 11.211 Z M 8.581 11.196 L 8.694 11.097 C 8.735 11.143 8.732 11.195 8.726 11.222 C 8.721 11.245 8.711 11.259 8.71 11.261 C 8.706 11.267 8.705 11.266 8.717 11.255 C 8.738 11.236 8.775 11.207 8.829 11.168 C 8.935 11.093 9.09 10.994 9.268 10.891 L 9.193 10.761 L 9.118 10.632 C 8.934 10.738 8.771 10.842 8.655 10.924 C 8.598 10.964 8.549 11.002 8.514 11.035 C 8.498 11.05 8.477 11.07 8.461 11.093 C 8.454 11.104 8.441 11.125 8.434 11.155 C 8.426 11.187 8.425 11.245 8.469 11.294 L 8.581 11.196 Z M 9.193 10.761 L 9.268 10.891 C 10.292 10.298 10.912 9.737 11.659 8.73 L 11.539 8.641 L 11.418 8.552 C 10.694 9.527 10.104 10.06 9.118 10.632 L 9.193 10.761 Z M 11.539 8.641 L 11.659 8.73 C 11.877 8.436 12.105 8.006 12.273 7.609 C 12.357 7.409 12.428 7.215 12.475 7.047 C 12.521 6.886 12.551 6.729 12.537 6.613 L 12.388 6.631 L 12.239 6.648 C 12.245 6.699 12.231 6.806 12.186 6.966 C 12.143 7.118 12.077 7.3 11.996 7.492 C 11.834 7.876 11.617 8.283 11.418 8.551 L 11.539 8.641 Z M 12.388 6.631 L 12.538 6.614 C 12.533 6.571 12.527 6.521 12.514 6.479 C 12.498 6.429 12.468 6.374 12.406 6.338 C 12.354 6.307 12.296 6.3 12.25 6.297 C 12.202 6.294 12.142 6.295 12.072 6.296 L 12.075 6.446 L 12.077 6.596 C 12.15 6.594 12.197 6.594 12.231 6.596 C 12.267 6.599 12.265 6.603 12.254 6.596 C 12.233 6.584 12.226 6.565 12.227 6.568 C 12.23 6.578 12.234 6.598 12.239 6.648 L 12.388 6.631 Z M 12.075 6.446 L 12.072 6.296 C 11.902 6.298 11.573 6.333 11.338 6.372 L 11.362 6.52 L 11.386 6.668 C 11.613 6.63 11.927 6.598 12.077 6.596 L 12.075 6.446 Z M 11.362 6.52 L 11.338 6.372 C 11.224 6.39 11.118 6.404 11.04 6.412 C 11 6.416 10.97 6.418 10.95 6.419 C 10.945 6.419 10.941 6.419 10.939 6.419 C 10.936 6.419 10.935 6.419 10.935 6.419 C 10.935 6.419 10.936 6.419 10.938 6.419 C 10.939 6.42 10.942 6.42 10.946 6.421 C 10.948 6.421 10.972 6.426 10.997 6.444 L 10.909 6.565 L 10.821 6.687 C 10.848 6.707 10.876 6.713 10.883 6.714 C 10.895 6.717 10.905 6.718 10.913 6.718 C 10.928 6.719 10.944 6.719 10.959 6.719 C 10.989 6.718 11.028 6.715 11.07 6.711 C 11.156 6.702 11.268 6.687 11.386 6.668 L 11.362 6.52 Z M 10.909 6.565 L 10.997 6.444 C 11.039 6.474 11.056 6.519 11.058 6.555 C 11.059 6.586 11.051 6.608 11.048 6.617 C 11.044 6.627 11.039 6.634 11.037 6.637 C 11.035 6.641 11.033 6.643 11.033 6.644 C 11.032 6.645 11.035 6.641 11.046 6.63 C 11.068 6.61 11.103 6.578 11.151 6.538 C 11.247 6.458 11.384 6.35 11.54 6.233 L 11.45 6.113 L 11.36 5.993 C 11.201 6.112 11.059 6.224 10.959 6.308 C 10.909 6.35 10.867 6.386 10.837 6.415 C 10.823 6.428 10.808 6.444 10.796 6.46 C 10.791 6.467 10.778 6.483 10.769 6.505 C 10.765 6.516 10.756 6.54 10.758 6.572 C 10.76 6.61 10.778 6.656 10.821 6.687 L 10.909 6.565 Z M 11.45 6.113 L 11.54 6.233 C 12.686 5.373 13.333 4.473 13.609 3.328 L 13.463 3.293 L 13.317 3.258 C 13.062 4.32 12.464 5.165 11.36 5.993 L 11.45 6.113 Z M 13.463 3.293 L 13.609 3.328 C 13.721 2.863 13.741 2.277 13.69 1.742 C 13.64 1.212 13.517 0.703 13.321 0.408 L 13.196 0.491 L 13.071 0.574 C 13.225 0.805 13.342 1.252 13.392 1.77 C 13.441 2.282 13.42 2.834 13.317 3.258 L 13.463 3.293 Z M 13.196 0.491 L 13.321 0.408 C 13.075 0.037 12.655 -0.138 12.111 -0.149 C 11.57 -0.161 10.887 -0.013 10.075 0.284 L 10.126 0.425 L 10.177 0.565 C 10.975 0.274 11.618 0.14 12.105 0.151 C 12.589 0.161 12.898 0.313 13.071 0.574 L 13.196 0.491 Z M 10.126 0.425 L 10.075 0.284 C 8.658 0.801 7.386 1.617 6.672 2.482 L 6.787 2.578 L 6.903 2.673 C 7.573 1.862 8.794 1.071 10.177 0.565 L 10.126 0.425 Z M 6.787 2.578 L 6.672 2.482 C 6.227 3.021 6.035 3.346 5.814 3.94 L 5.955 3.993 L 6.096 4.045 C 6.304 3.486 6.478 3.189 6.903 2.673 L 6.787 2.578 Z M 5.955 3.993 L 5.814 3.94 C 5.774 4.049 5.73 4.146 5.693 4.214 C 5.674 4.248 5.66 4.271 5.65 4.283 C 5.645 4.289 5.646 4.288 5.651 4.284 C 5.653 4.281 5.66 4.276 5.671 4.271 C 5.682 4.265 5.702 4.257 5.729 4.257 L 5.729 4.407 L 5.729 4.557 C 5.789 4.557 5.83 4.525 5.843 4.514 C 5.861 4.499 5.876 4.481 5.888 4.466 C 5.911 4.436 5.934 4.398 5.956 4.357 C 6.001 4.275 6.051 4.164 6.095 4.045 L 5.955 3.993 Z M 5.729 4.407 L 5.729 4.257 C 5.769 4.257 5.793 4.274 5.796 4.276 C 5.802 4.28 5.803 4.282 5.799 4.278 C 5.791 4.27 5.778 4.253 5.76 4.226 C 5.726 4.174 5.684 4.098 5.645 4.011 L 5.508 4.072 L 5.371 4.133 C 5.415 4.231 5.464 4.323 5.51 4.392 C 5.532 4.425 5.556 4.458 5.581 4.484 C 5.593 4.497 5.609 4.512 5.628 4.525 C 5.644 4.536 5.68 4.557 5.729 4.557 L 5.729 4.407 Z M 5.508 4.072 L 5.645 4.011 C 5.597 3.904 5.557 3.817 5.521 3.749 C 5.486 3.681 5.45 3.622 5.407 3.576 C 5.36 3.526 5.308 3.492 5.245 3.474 C 5.187 3.457 5.128 3.455 5.075 3.455 L 5.075 3.605 L 5.075 3.755 C 5.124 3.755 5.147 3.758 5.16 3.761 C 5.167 3.764 5.174 3.766 5.187 3.78 C 5.203 3.797 5.224 3.828 5.256 3.888 C 5.287 3.948 5.324 4.026 5.372 4.134 L 5.508 4.072 Z M 5.075 3.605 L 5.075 3.455 C 4.977 3.455 4.875 3.495 4.78 3.546 C 4.681 3.599 4.574 3.674 4.462 3.763 C 4.237 3.943 3.982 4.191 3.728 4.472 C 3.22 5.032 2.7 5.74 2.42 6.323 L 2.555 6.388 L 2.69 6.453 C 2.954 5.905 3.453 5.222 3.95 4.673 C 4.198 4.4 4.441 4.164 4.649 3.998 C 4.753 3.915 4.845 3.852 4.922 3.81 C 5.003 3.766 5.053 3.755 5.075 3.755 L 5.075 3.605 Z M 2.555 6.388 L 2.42 6.323 C 2.088 7.014 1.893 7.909 1.893 8.73 L 2.043 8.73 L 2.193 8.73 C 2.193 7.95 2.38 7.1 2.69 6.453 L 2.555 6.388 Z M 2.043 8.73 L 1.893 8.73 C 1.893 8.984 1.887 9.138 1.875 9.225 C 1.868 9.272 1.862 9.28 1.866 9.273 C 1.869 9.267 1.881 9.249 1.908 9.236 C 1.936 9.221 1.965 9.221 1.984 9.225 L 1.952 9.372 L 1.919 9.518 C 1.956 9.527 2 9.525 2.043 9.503 C 2.084 9.483 2.109 9.451 2.124 9.425 C 2.152 9.378 2.164 9.32 2.172 9.267 C 2.188 9.156 2.193 8.981 2.193 8.73 L 2.043 8.73 Z M 1.952 9.372 L 1.984 9.225 C 2.002 9.229 2.01 9.236 2.003 9.232 C 1.999 9.229 1.992 9.225 1.981 9.216 C 1.959 9.2 1.929 9.175 1.894 9.142 C 1.823 9.078 1.736 8.99 1.651 8.896 L 1.539 8.996 L 1.428 9.097 C 1.519 9.197 1.613 9.292 1.692 9.364 C 1.731 9.4 1.768 9.431 1.801 9.456 C 1.817 9.468 1.834 9.48 1.85 9.49 C 1.864 9.498 1.889 9.512 1.919 9.518 L 1.952 9.372 Z M 1.539 8.996 L 1.651 8.895 C 1.523 8.754 1.401 8.642 1.28 8.574 C 1.156 8.503 1.022 8.472 0.884 8.513 C 0.753 8.552 0.646 8.65 0.553 8.774 C 0.46 8.899 0.369 9.067 0.275 9.273 L 0.411 9.335 L 0.548 9.397 C 0.638 9.199 0.719 9.053 0.793 8.954 C 0.869 8.853 0.928 8.813 0.971 8.8 C 1.007 8.789 1.055 8.791 1.131 8.834 C 1.211 8.88 1.308 8.964 1.428 9.097 L 1.539 8.996 Z M 0.411 9.335 L 0.275 9.273 C -0.025 9.932 -0.15 10.491 -0.15 11.188 L 0 11.188 L 0.15 11.188 C 0.15 10.536 0.265 10.019 0.548 9.397 L 0.411 9.335 Z M 0 11.188 L -0.15 11.188 C -0.15 12.169 0.107 12.883 0.768 13.767 L 0.888 13.677 L 1.008 13.587 C 0.38 12.748 0.15 12.095 0.15 11.188 L 0 11.188 Z M 0.888 13.677 L 0.768 13.767 C 0.991 14.065 1.177 14.273 1.348 14.379 C 1.437 14.435 1.531 14.469 1.631 14.467 C 1.731 14.465 1.82 14.427 1.898 14.371 L 1.809 14.25 L 1.721 14.128 C 1.68 14.158 1.65 14.166 1.626 14.167 C 1.6 14.167 1.562 14.159 1.506 14.125 C 1.388 14.051 1.231 13.886 1.008 13.587 L 0.888 13.677 Z M 1.809 14.25 L 1.898 14.371 C 1.949 14.333 2 14.282 2.024 14.208 C 2.049 14.133 2.041 14.059 2.018 13.991 C 1.976 13.864 1.869 13.713 1.715 13.522 L 1.599 13.616 L 1.482 13.71 C 1.64 13.906 1.711 14.018 1.733 14.085 C 1.743 14.114 1.738 14.119 1.74 14.112 C 1.742 14.107 1.743 14.112 1.721 14.128 L 1.809 14.25 Z M 1.599 13.616 L 1.715 13.522 C 1.312 13.02 1.035 12.509 0.903 12.034 L 0.758 12.074 L 0.614 12.114 C 0.76 12.638 1.059 13.185 1.482 13.71 L 1.599 13.616 Z M 0.758 12.074 L 0.903 12.034 C 0.829 11.77 0.802 11.389 0.821 10.996 C 0.841 10.603 0.906 10.216 1.007 9.943 L 0.867 9.891 L 0.726 9.839 C 0.611 10.151 0.542 10.571 0.522 10.981 C 0.501 11.39 0.528 11.808 0.614 12.114 L 0.758 12.074 Z M 0.867 9.891 L 1.007 9.943 C 1.05 9.829 1.091 9.724 1.123 9.646 C 1.14 9.607 1.153 9.577 1.163 9.556 C 1.168 9.545 1.171 9.539 1.173 9.537 C 1.174 9.535 1.173 9.537 1.17 9.54 C 1.169 9.542 1.167 9.546 1.163 9.55 C 1.16 9.554 1.152 9.562 1.14 9.571 L 1.051 9.45 L 0.963 9.329 C 0.941 9.345 0.927 9.364 0.925 9.368 C 0.919 9.376 0.915 9.383 0.912 9.389 C 0.905 9.4 0.899 9.413 0.892 9.427 C 0.879 9.454 0.864 9.489 0.847 9.53 C 0.812 9.613 0.769 9.722 0.726 9.839 L 0.867 9.891 Z M 1.051 9.45 L 1.14 9.571 C 1.099 9.6 1.059 9.599 1.048 9.599 C 1.033 9.598 1.022 9.595 1.02 9.594 C 1.014 9.592 1.013 9.591 1.02 9.595 C 1.032 9.601 1.053 9.613 1.083 9.633 C 1.141 9.671 1.22 9.729 1.305 9.796 L 1.398 9.678 L 1.491 9.56 C 1.401 9.49 1.315 9.427 1.248 9.383 C 1.215 9.361 1.183 9.341 1.156 9.328 C 1.144 9.321 1.127 9.313 1.108 9.307 C 1.099 9.304 1.084 9.3 1.064 9.299 C 1.049 9.298 1.005 9.298 0.963 9.329 L 1.051 9.45 Z M 1.398 9.678 L 1.305 9.795 C 1.583 10.015 1.862 10.176 2.108 10.26 C 2.342 10.34 2.593 10.367 2.769 10.239 L 2.681 10.118 L 2.592 9.996 C 2.543 10.032 2.422 10.051 2.205 9.976 C 2 9.906 1.75 9.765 1.491 9.56 L 1.398 9.678 Z M 2.681 10.118 L 2.769 10.239 C 2.805 10.213 2.825 10.178 2.837 10.153 C 2.849 10.126 2.857 10.098 2.863 10.071 C 2.874 10.016 2.881 9.947 2.884 9.867 C 2.891 9.704 2.887 9.467 2.871 9.143 L 2.721 9.15 L 2.572 9.157 C 2.587 9.48 2.591 9.705 2.585 9.854 C 2.582 9.929 2.576 9.978 2.569 10.008 C 2.566 10.023 2.564 10.029 2.564 10.028 C 2.564 10.028 2.566 10.024 2.57 10.018 C 2.574 10.013 2.581 10.005 2.592 9.996 L 2.681 10.118 Z M 2.721 9.15 L 2.871 9.143 C 2.842 8.503 2.862 8.03 2.951 7.601 C 3.041 7.173 3.202 6.781 3.463 6.305 L 3.332 6.233 L 3.201 6.161 C 2.93 6.653 2.755 7.074 2.658 7.54 C 2.56 8.004 2.541 8.506 2.572 9.157 L 2.721 9.15 Z M 3.332 6.233 L 3.463 6.305 C 3.648 5.971 3.978 5.521 4.291 5.153 C 4.446 4.97 4.595 4.811 4.715 4.698 C 4.775 4.642 4.825 4.6 4.864 4.574 C 4.883 4.56 4.897 4.553 4.905 4.549 C 4.915 4.545 4.908 4.55 4.89 4.55 L 4.89 4.4 L 4.89 4.25 C 4.846 4.25 4.807 4.264 4.78 4.276 C 4.75 4.29 4.721 4.308 4.694 4.327 C 4.638 4.365 4.575 4.418 4.51 4.479 C 4.378 4.602 4.222 4.771 4.062 4.959 C 3.743 5.335 3.399 5.801 3.201 6.161 L 3.332 6.233 Z M 4.89 4.4 L 4.89 4.55 C 4.86 4.55 4.842 4.54 4.84 4.539 C 4.836 4.537 4.836 4.537 4.841 4.54 C 4.849 4.547 4.864 4.559 4.883 4.58 C 4.922 4.619 4.969 4.677 5.015 4.742 L 5.138 4.656 L 5.261 4.571 C 5.208 4.495 5.15 4.424 5.099 4.371 C 5.074 4.345 5.047 4.32 5.021 4.3 C 5.008 4.291 4.992 4.28 4.974 4.271 C 4.959 4.263 4.929 4.25 4.89 4.25 L 4.89 4.4 Z M 5.138 4.656 L 5.015 4.742 C 5.186 4.988 5.432 5.186 5.669 5.297 C 5.787 5.353 5.91 5.39 6.025 5.396 C 6.141 5.402 6.263 5.378 6.358 5.293 L 6.258 5.182 L 6.158 5.07 C 6.142 5.084 6.109 5.1 6.042 5.096 C 5.976 5.093 5.891 5.07 5.796 5.025 C 5.606 4.936 5.402 4.772 5.261 4.571 L 5.138 4.656 Z M 6.258 5.182 L 6.359 5.293 C 6.391 5.264 6.412 5.225 6.424 5.2 C 6.439 5.169 6.453 5.134 6.466 5.098 C 6.491 5.025 6.514 4.937 6.529 4.85 L 6.381 4.824 L 6.233 4.798 C 6.221 4.871 6.202 4.944 6.182 5 C 6.172 5.029 6.163 5.051 6.156 5.066 C 6.146 5.086 6.145 5.082 6.157 5.071 L 6.258 5.182 Z M 6.381 4.824 L 6.529 4.849 C 6.752 3.537 7.862 2.195 9.375 1.453 L 9.309 1.318 L 9.243 1.184 C 7.667 1.957 6.477 3.368 6.233 4.799 L 6.381 4.824 Z M 9.309 1.318 L 9.375 1.453 C 9.913 1.189 10.99 0.791 11.41 0.698 L 11.377 0.552 L 11.345 0.405 C 10.895 0.505 9.795 0.913 9.243 1.184 L 9.309 1.318 Z M 11.377 0.552 L 11.41 0.698 C 11.595 0.657 11.794 0.635 11.968 0.631 C 12.147 0.627 12.28 0.643 12.345 0.668 L 12.399 0.528 L 12.454 0.389 C 12.331 0.341 12.148 0.326 11.961 0.331 C 11.768 0.335 11.549 0.36 11.345 0.405 L 11.377 0.552 Z M 12.399 0.528 L 12.345 0.668 C 12.367 0.677 12.399 0.699 12.439 0.75 C 12.477 0.8 12.517 0.869 12.555 0.957 C 12.63 1.134 12.692 1.37 12.733 1.635 C 12.815 2.167 12.807 2.783 12.677 3.22 L 12.82 3.263 L 12.964 3.306 C 13.111 2.812 13.116 2.148 13.03 1.589 C 12.986 1.309 12.919 1.046 12.83 0.839 C 12.786 0.736 12.735 0.642 12.675 0.566 C 12.617 0.49 12.544 0.424 12.454 0.389 L 12.399 0.528 Z M 12.82 3.263 L 12.677 3.22 C 12.329 4.388 11.252 5.62 10.037 6.228 L 10.104 6.362 L 10.171 6.496 C 11.452 5.856 12.59 4.562 12.964 3.306 L 12.82 3.263 Z M 10.104 6.362 L 10.037 6.228 C 9.83 6.331 9.671 6.429 9.585 6.539 C 9.538 6.599 9.506 6.672 9.509 6.754 C 9.512 6.835 9.546 6.903 9.587 6.96 L 9.708 6.871 L 9.829 6.782 C 9.808 6.754 9.809 6.743 9.809 6.745 C 9.809 6.749 9.806 6.744 9.822 6.724 C 9.861 6.673 9.961 6.601 10.171 6.496 L 10.104 6.362 Z M 9.708 6.871 L 9.587 6.96 C 9.685 7.092 9.842 7.15 10.053 7.177 C 10.265 7.204 10.568 7.204 10.997 7.186 L 10.991 7.036 L 10.984 6.886 C 10.554 6.904 10.275 6.903 10.091 6.88 C 9.906 6.856 9.852 6.813 9.829 6.782 L 9.708 6.871 Z M 10.991 7.036 L 10.997 7.186 L 11.68 7.156 L 11.673 7.006 L 11.667 6.856 L 10.984 6.886 L 10.991 7.036 Z M 11.673 7.006 L 11.53 6.962 L 11.486 7.103 L 11.63 7.148 L 11.773 7.192 L 11.817 7.05 L 11.673 7.006 Z M 11.63 7.148 L 11.486 7.103 C 11.078 8.429 9.729 9.805 7.885 10.727 L 7.953 10.861 L 8.02 10.995 C 9.904 10.053 11.331 8.625 11.773 7.192 L 11.63 7.148 Z M 7.953 10.861 L 7.885 10.727 C 7.626 10.857 7.458 10.946 7.353 11.024 C 7.298 11.063 7.253 11.106 7.22 11.156 C 7.185 11.208 7.168 11.261 7.161 11.313 L 7.31 11.334 L 7.458 11.354 C 7.461 11.338 7.464 11.33 7.469 11.322 C 7.476 11.312 7.492 11.294 7.53 11.265 C 7.611 11.206 7.755 11.128 8.02 10.995 L 7.953 10.861 Z M 7.31 11.334 L 7.161 11.314 C 7.151 11.387 7.151 11.473 7.198 11.552 C 7.245 11.629 7.321 11.67 7.39 11.697 L 7.445 11.558 L 7.499 11.418 C 7.451 11.399 7.45 11.389 7.455 11.397 C 7.46 11.406 7.452 11.403 7.458 11.354 L 7.31 11.334 Z M 7.445 11.558 L 7.39 11.697 C 7.423 11.71 7.467 11.719 7.509 11.727 C 7.555 11.736 7.612 11.744 7.676 11.753 C 7.804 11.77 7.965 11.788 8.136 11.804 C 8.477 11.836 8.864 11.862 9.109 11.864 L 9.11 11.714 L 9.111 11.564 C 8.879 11.562 8.502 11.537 8.164 11.505 C 7.996 11.489 7.839 11.472 7.716 11.455 C 7.655 11.447 7.603 11.439 7.563 11.432 C 7.544 11.428 7.528 11.425 7.516 11.422 C 7.503 11.419 7.498 11.417 7.499 11.418 L 7.445 11.558 Z M 9.11 11.714 L 9.108 11.864 C 9.132 11.864 9.147 11.865 9.157 11.866 C 9.168 11.868 9.162 11.869 9.15 11.862 C 9.133 11.853 9.107 11.832 9.096 11.794 C 9.091 11.778 9.091 11.765 9.092 11.757 C 9.093 11.753 9.093 11.75 9.094 11.748 C 9.094 11.747 9.094 11.746 9.094 11.745 C 9.094 11.745 9.094 11.746 9.094 11.747 C 9.093 11.749 9.092 11.751 9.091 11.753 C 9.088 11.759 9.084 11.766 9.079 11.775 C 9.068 11.793 9.052 11.817 9.03 11.847 C 8.986 11.907 8.922 11.987 8.836 12.093 L 8.952 12.187 L 9.068 12.282 C 9.155 12.177 9.223 12.091 9.272 12.024 C 9.318 11.961 9.36 11.898 9.379 11.84 C 9.389 11.81 9.399 11.764 9.385 11.712 C 9.368 11.654 9.328 11.617 9.289 11.597 C 9.255 11.579 9.22 11.572 9.195 11.569 C 9.168 11.565 9.139 11.564 9.111 11.564 L 9.11 11.714 Z M 8.952 12.187 L 8.836 12.093 C 8.596 12.387 8.176 12.731 7.68 13.051 C 7.186 13.369 6.626 13.656 6.114 13.842 L 6.165 13.983 L 6.216 14.124 C 6.753 13.929 7.333 13.631 7.842 13.303 C 8.35 12.976 8.799 12.612 9.068 12.282 L 8.952 12.187 Z M 6.165 13.983 L 6.114 13.842 C 5.818 13.949 5.25 14.095 4.698 14.215 C 4.424 14.275 4.155 14.328 3.931 14.366 C 3.702 14.405 3.528 14.426 3.436 14.427 L 3.437 14.577 L 3.438 14.727 C 3.557 14.726 3.753 14.7 3.981 14.662 C 4.211 14.623 4.484 14.569 4.762 14.508 C 5.316 14.388 5.9 14.238 6.216 14.124 L 6.165 13.983 Z M 3.437 14.577 L 3.436 14.427 C 3.436 14.427 3.438 14.427 3.441 14.428 C 3.444 14.428 3.448 14.429 3.454 14.431 C 3.466 14.435 3.481 14.443 3.493 14.457 C 3.517 14.483 3.513 14.505 3.513 14.488 C 3.512 14.45 3.529 14.363 3.59 14.186 C 3.706 13.843 3.957 13.239 4.404 12.199 L 4.267 12.14 L 4.129 12.08 C 3.684 13.117 3.427 13.733 3.306 14.09 C 3.247 14.263 3.212 14.395 3.213 14.491 C 3.213 14.539 3.223 14.606 3.272 14.66 C 3.325 14.717 3.393 14.728 3.438 14.727 L 3.437 14.577 Z M 4.267 12.14 L 4.404 12.199 C 4.761 11.37 5.407 10.103 6.02 9.034 L 5.89 8.959 L 5.76 8.884 C 5.143 9.96 4.491 11.238 4.129 12.081 L 4.267 12.14 Z M 5.89 8.959 L 6.02 9.034 C 6.584 8.05 8.037 5.995 8.675 5.274 L 8.563 5.175 L 8.45 5.075 C 7.797 5.813 6.333 7.886 5.76 8.884 L 5.89 8.959 Z M 8.563 5.175 L 8.674 5.275 C 8.808 5.125 9.029 4.87 9.167 4.71 L 9.053 4.612 L 8.939 4.514 C 8.802 4.674 8.582 4.927 8.451 5.075 L 8.563 5.175 Z M 9.053 4.612 L 9.167 4.709 C 9.299 4.554 9.581 4.259 9.79 4.057 L 9.685 3.949 L 9.581 3.842 C 9.368 4.048 9.079 4.35 8.939 4.515 L 9.053 4.612 Z M 9.685 3.949 L 9.789 4.057 C 9.937 3.915 10.041 3.804 10.107 3.708 C 10.175 3.609 10.212 3.512 10.2 3.402 L 10.051 3.419 L 9.902 3.436 C 9.903 3.448 9.904 3.474 9.86 3.538 C 9.813 3.607 9.728 3.7 9.581 3.841 L 9.685 3.949 Z M 10.051 3.419 L 10.2 3.402 C 10.192 3.331 10.174 3.228 10.079 3.162 C 10.038 3.133 9.991 3.119 9.95 3.111 C 9.908 3.102 9.861 3.098 9.809 3.094 L 9.798 3.244 L 9.788 3.393 C 9.837 3.397 9.869 3.401 9.891 3.405 C 9.913 3.409 9.914 3.413 9.908 3.409 C 9.905 3.406 9.901 3.403 9.898 3.399 C 9.895 3.394 9.894 3.392 9.894 3.392 C 9.895 3.395 9.898 3.406 9.902 3.437 L 10.051 3.419 Z M 9.798 3.244 L 9.811 3.094 C 9.791 3.093 9.774 3.091 9.759 3.09 L 9.744 3.239 L 9.73 3.388 C 9.747 3.39 9.766 3.392 9.786 3.393 L 9.798 3.244 Z M 9.744 3.239 L 9.76 3.09 C 9.732 3.087 9.692 3.083 9.653 3.085 L 9.662 3.235 L 9.671 3.384 C 9.682 3.384 9.696 3.385 9.729 3.388 L 9.744 3.239 Z M 9.662 3.235 L 9.65 3.085 C 9.532 3.094 9.442 3.161 9.322 3.276 C 9.2 3.394 9.016 3.595 8.711 3.928 L 8.822 4.029 L 8.933 4.131 C 9.241 3.794 9.416 3.602 9.53 3.493 C 9.647 3.38 9.67 3.385 9.674 3.384 L 9.662 3.235 Z M 8.822 4.029 L 8.711 3.928 C 8.644 4.002 8.57 4.082 8.49 4.17 L 8.6 4.271 L 8.711 4.372 C 8.791 4.285 8.865 4.204 8.933 4.131 L 8.822 4.029 Z M 8.6 4.271 L 8.49 4.17 C 5.63 7.288 3.569 11.086 1.792 16.493 L 1.935 16.54 L 2.077 16.587 C 3.845 11.207 5.888 7.451 8.711 4.372 L 8.6 4.271 Z M 1.935 16.54 L 1.792 16.493 L 1.708 16.751 L 1.85 16.798 L 1.993 16.845 L 2.077 16.586 L 1.935 16.54 Z M 1.85 16.798 L 1.708 16.751 C 1.18 18.358 0.895 19.225 0.758 19.704 C 0.691 19.941 0.656 20.096 0.649 20.202 C 0.645 20.257 0.648 20.31 0.665 20.359 C 0.683 20.413 0.714 20.45 0.744 20.477 L 0.843 20.364 L 0.943 20.251 C 0.941 20.25 0.946 20.255 0.949 20.262 C 0.949 20.264 0.946 20.255 0.948 20.222 C 0.953 20.151 0.979 20.025 1.047 19.786 C 1.181 19.315 1.464 18.455 1.993 16.845 L 1.85 16.798 Z M 0.843 20.364 L 0.744 20.477 C 0.761 20.492 0.779 20.504 0.79 20.512 L 0.877 20.39 L 0.964 20.267 C 0.95 20.258 0.946 20.254 0.942 20.251 L 0.843 20.364 Z M 0.877 20.39 L 0.79 20.512 C 0.794 20.515 0.798 20.518 0.802 20.52 L 0.89 20.399 L 0.978 20.278 C 0.973 20.274 0.968 20.27 0.964 20.267 L 0.877 20.39 Z" fill="currentColor" fill-rule="nonzero"></path></g>
</svg>