<svg xmlns="http://www.w3.org/2000/svg" width="24" height="24" viewBox="0 0 24 24" fill="currentColor">
  <g transform="translate(5 2)"><path d="M 1.448 20.347 C 1.34 20.486 0.974 20.504 0.794 20.379 C 0.655 20.283 0.647 20.22 0.743 20.006 C 0.781 19.921 0.882 19.685 0.968 19.481 C 1.989 17.048 3.053 14.686 3.703 13.41 C 4.187 12.46 4.825 11.273 4.97 11.05 C 5.047 10.934 5.213 10.659 5.339 10.441 C 5.957 9.375 7.576 7.042 8.359 6.093 C 8.881 5.459 9.846 4.349 10.198 3.978 C 10.638 3.514 10.697 3.254 10.377 3.198 C 10.265 3.178 10.136 3.193 10.067 3.231 C 9.668 3.461 7.582 5.921 6.472 7.471 C 6.148 7.923 5.852 8.333 5.814 8.381 C 5.698 8.528 4.862 9.846 4.49 10.467 C 3.756 11.696 2.96 13.175 2.476 14.205 C 2.361 14.453 2.24 14.676 2.208 14.7 C 2.139 14.753 1.383 14.171 1.047 13.806 C 0.688 13.417 0.312 12.847 0.158 12.456 C 0.053 12.189 0.022 11.917 0.025 11.263 C 0.03 10.326 0.141 9.91 0.61 9.089 C 0.968 8.46 1.044 8.414 1.203 8.731 C 1.341 9.006 1.864 9.603 2.101 9.757 L 2.299 9.884 L 2.253 9.698 C 2.02 8.741 2.001 8.285 2.164 7.547 C 2.273 7.048 2.514 6.398 2.717 6.052 C 3.167 5.284 4.128 4.299 5.004 3.707 C 5.485 3.382 5.58 3.394 5.583 3.786 C 5.585 4.1 5.913 4.873 6.044 4.873 C 6.075 4.873 6.124 4.728 6.153 4.55 C 6.308 3.605 7.084 2.558 8.194 1.796 C 9.292 1.042 11.015 0.402 12.756 0.103 L 12.792 0.096 C 13.308 0.007 13.522 -0.03 13.631 0.028 C 13.71 0.071 13.733 0.164 13.776 0.326 C 13.824 0.509 13.905 0.94 13.954 1.285 C 14.107 2.337 13.872 3.488 13.314 4.428 C 12.86 5.191 11.829 6.055 10.801 6.533 C 10.572 6.639 10.439 6.733 10.488 6.753 C 10.621 6.81 11.787 6.626 12.365 6.457 C 12.656 6.373 12.91 6.313 12.928 6.327 C 12.947 6.34 12.907 6.52 12.839 6.726 C 12.486 7.8 11.833 8.777 10.962 9.539 C 10.257 10.156 9.032 10.889 8.246 11.164 C 7.553 11.407 8.049 11.468 9.289 11.291 C 9.691 11.234 10.109 11.172 10.218 11.153 C 10.511 11.102 10.476 11.234 10.047 11.793 C 8.88 13.31 7.089 14.321 4.624 14.851 C 4.203 14.942 3.819 15.043 3.771 15.075 C 3.662 15.149 3.228 16.134 2.097 18.876 C 1.789 19.622 1.497 20.284 1.448 20.347 Z M 13.775 21.917 C 13.624 21.99 12.85 22 6.96 22 L 0.317 22 L 0.141 21.871 C 0.011 21.775 -0.023 21.705 0.014 21.605 C 0.041 21.531 0.105 21.47 0.157 21.469 C 0.21 21.469 3.3 21.463 7.026 21.457 C 12.939 21.446 13.808 21.455 13.871 21.524 C 13.994 21.659 13.952 21.831 13.775 21.917 Z M 13.865 20.254 C 13.789 20.354 13.651 20.356 8.736 20.356 C 4.786 20.356 3.668 20.342 3.61 20.29 C 3.465 20.16 3.448 20.049 3.56 19.938 L 3.674 19.826 L 8.69 19.826 C 13.146 19.826 13.717 19.835 13.825 19.909 C 13.965 20.006 13.977 20.11 13.865 20.254 Z" fill="currentColor" fill-rule="nonzero"></path></g>
</svg>