<svg xmlns="http://www.w3.org/2000/svg" width="24" height="24" viewBox="0 0 24 24" fill="currentColor">
  <g transform="translate(24 0) scale(-1 1)">
  <g transform="translate(2.671 2)"><path d="M 1.107 1.655 C 0.925 2.016 0.836 2.461 0.658 3.351 L 0.06 6.341 C -0.318 8.234 1.13 10 3.06 10 C 4.632 10 5.948 8.809 6.104 7.245 L 6.173 6.555 C 6.01 8.404 7.467 10 9.328 10 C 11.202 10 12.667 8.382 12.48 6.517 L 12.553 7.245 C 12.71 8.809 14.025 10 15.597 10 C 17.528 10 18.975 8.234 18.597 6.341 L 17.999 3.351 C 17.821 2.461 17.732 2.016 17.551 1.655 C 17.169 0.894 16.483 0.332 15.662 0.107 C 15.273 0 14.819 0 13.911 0 L 11.828 0 L 4.746 0 C 3.838 0 3.384 0 2.995 0.107 C 2.174 0.332 1.488 0.894 1.107 1.655 Z" fill="currentColor" fill-rule="nonzero"></path></g>
  <g transform="translate(3.5 12.272)"><path d="M 14.768 1.228 C 15.586 1.228 16.345 1.016 17 0.647 L 17 1.728 C 17 5.499 17 7.385 15.828 8.557 C 14.885 9.5 13.48 9.684 11 9.72 L 11 6.228 C 11 5.294 11 4.826 10.799 4.478 C 10.667 4.25 10.478 4.061 10.25 3.929 C 9.902 3.728 9.435 3.728 8.5 3.728 C 7.565 3.728 7.098 3.728 6.75 3.929 C 6.522 4.061 6.333 4.25 6.201 4.478 C 6 4.826 6 5.294 6 6.228 L 6 9.72 C 3.52 9.684 2.115 9.5 1.172 8.557 C 0 7.385 0 5.499 0 1.728 L 0 0.647 C 0.655 1.016 1.414 1.228 2.232 1.228 C 3.429 1.228 4.526 0.765 5.344 0 C 6.172 0.76 7.276 1.228 8.5 1.228 C 9.723 1.228 10.828 0.76 11.655 0 C 12.474 0.765 13.571 1.228 14.768 1.228 Z" fill="currentColor" fill-rule="nonzero"></path></g>
  </g>
</svg>