<svg xmlns="http://www.w3.org/2000/svg" width="24" height="24" viewBox="0 0 24 24" fill="currentColor">
  <g transform="translate(1 3)"><path d="M 7.7 10 C 10.131 10 12.1 7.762 12.1 5 C 12.1 2.238 10.131 0 7.7 0 C 5.27 0 3.3 2.238 3.3 5 C 3.3 7.762 5.27 10 7.7 10 Z M 10.78 11.25 L 10.206 11.25 C 9.443 11.648 8.594 11.875 7.7 11.875 C 6.807 11.875 5.961 11.648 5.194 11.25 L 4.62 11.25 C 2.069 11.25 0 13.601 0 16.5 L 0 18.125 C 0 19.16 0.739 20 1.65 20 L 11.1 20 C 11.018 19.734 10.983 19.453 11.011 19.168 L 11.245 16.789 L 11.286 16.355 L 11.557 16.046 L 14.215 13.027 C 13.372 11.945 12.152 11.25 10.78 11.25 Z M 12.338 16.925 L 12.104 19.308 C 12.066 19.707 12.362 20.042 12.709 19.996 L 14.802 19.73 L 19.543 14.343 L 17.078 11.543 L 12.338 16.925 Z M 21.76 10.504 L 20.457 9.023 C 20.138 8.66 19.615 8.66 19.295 9.023 L 17.996 10.5 L 17.855 10.66 L 20.323 13.461 L 21.76 11.828 C 22.08 11.461 22.08 10.871 21.76 10.504 Z" fill="currentColor" fill-rule="nonzero"></path></g>
</svg>